M48
;DRILL file {KiCad (2015-07-01 BZR 5850, Git 51c0ae3)-product} date 08.09.2015 00:16:43
;FORMAT={-:-/ absolute / metric / decimal}
FMAT,2
METRIC,TZ
T1C0.600
T2C0.635
T3C0.800
T4C0.800
T5C0.813
T6C0.889
T7C0.990
T8C0.998
T9C1.016
T10C1.300
%
G90
G05
M71
T1
X16.764Y-85.344
X19.304Y-45.974
X24.384Y-28.194
X24.384Y-45.974
X24.384Y-66.294
X30.099Y-77.089
X57.404Y-52.324
X80.899Y-88.519
X88.519Y-9.144
X91.059Y-76.454
X104.394Y-17.399
X105.029Y-77.724
X106.299Y-7.239
X127.889Y-59.309
X127.889Y-91.059
X129.794Y-39.624
T2
X11.684Y-5.334
X15.494Y-19.304
X19.304Y-32.004
X25.654Y-97.409
X26.924Y-63.119
X28.829Y-4.699
X30.099Y-14.859
X31.369Y-55.499
X33.909Y-49.149
X35.179Y-25.654
X36.449Y-18.034
X36.449Y-46.609
X38.989Y-43.434
X40.259Y-14.859
X47.879Y-18.669
X52.959Y-74.549
X56.134Y-49.149
X58.674Y-46.609
X59.944Y-59.309
X60.579Y-43.434
X61.214Y-7.239
X64.389Y-25.019
X64.389Y-35.814
X66.929Y-33.909
X66.929Y-53.594
X68.834Y-51.054
X69.469Y-59.309
X69.469Y-68.834
X72.009Y-40.259
X72.009Y-73.914
X72.009Y-87.884
X72.644Y-11.684
X74.549Y-38.354
X74.549Y-76.454
X77.089Y-38.354
X77.089Y-71.374
X79.629Y-31.369
X82.169Y-53.594
X84.709Y-45.974
X84.709Y-53.594
X84.709Y-61.849
X84.709Y-84.074
X85.979Y-6.604
X87.249Y-48.514
X88.519Y-11.684
X89.789Y-61.849
X92.329Y-15.494
X92.329Y-56.134
X94.869Y-46.609
X97.409Y-11.684
X97.409Y-15.494
X97.409Y-49.149
X99.949Y-17.399
X99.949Y-51.689
X101.219Y-6.604
X102.489Y-19.939
X102.489Y-54.229
X104.394Y-94.869
X105.029Y-56.769
X106.299Y-19.939
X106.299Y-91.059
X107.569Y-75.184
X108.839Y-22.479
X110.109Y-31.369
X110.109Y-79.629
X112.014Y-7.874
X112.649Y-82.169
X118.999Y-28.829
X119.634Y-33.909
X120.269Y-11.684
X122.809Y-26.289
X122.809Y-31.369
X125.349Y-14.859
X128.524Y-66.929
X128.524Y-72.009
X128.524Y-77.089
X128.524Y-82.169
X129.794Y-5.334
X130.429Y-64.389
X130.429Y-69.469
X130.429Y-74.549
X130.429Y-79.629
X132.334Y-23.114
X133.604Y-28.829
X134.874Y-14.859
X136.779Y-17.399
T3
X6.604Y-73.279
X6.604Y-75.819
X14.224Y-73.279
X14.224Y-75.819
X64.389Y-28.194
X64.389Y-43.434
X66.929Y-28.194
X66.929Y-43.434
X66.929Y-65.659
X66.929Y-80.899
X69.469Y-28.194
X69.469Y-43.434
X69.469Y-65.659
X69.469Y-80.899
X72.009Y-28.194
X72.009Y-43.434
X72.009Y-65.659
X72.009Y-80.899
X74.549Y-28.194
X74.549Y-43.434
X74.549Y-51.054
X74.549Y-58.674
X74.549Y-65.659
X74.549Y-80.899
X77.089Y-28.194
X77.089Y-43.434
X77.089Y-51.054
X77.089Y-58.674
X77.089Y-65.659
X77.089Y-80.899
X79.629Y-28.194
X79.629Y-43.434
X79.629Y-51.054
X79.629Y-58.674
X79.629Y-65.659
X79.629Y-80.899
X82.169Y-28.194
X82.169Y-43.434
X82.169Y-51.054
X82.169Y-58.674
X82.169Y-65.659
X82.169Y-80.899
X84.709Y-28.194
X84.709Y-43.434
X84.709Y-51.054
X84.709Y-58.674
X84.709Y-65.659
X84.709Y-80.899
X84.709Y-87.249
X84.709Y-94.869
X87.249Y-28.194
X87.249Y-43.434
X87.249Y-51.054
X87.249Y-58.674
X87.249Y-65.659
X87.249Y-80.899
X87.249Y-87.249
X87.249Y-94.869
X89.789Y-28.194
X89.789Y-43.434
X89.789Y-51.054
X89.789Y-58.674
X89.789Y-65.659
X89.789Y-80.899
X89.789Y-87.249
X89.789Y-94.869
X92.329Y-28.194
X92.329Y-43.434
X92.329Y-65.659
X92.329Y-80.899
X92.329Y-87.249
X92.329Y-94.869
X94.869Y-28.194
X94.869Y-43.434
X94.869Y-65.659
X94.869Y-80.899
X94.869Y-87.249
X94.869Y-94.869
X97.409Y-28.194
X97.409Y-43.434
X97.409Y-65.659
X97.409Y-80.899
X97.409Y-87.249
X97.409Y-94.869
X99.949Y-28.194
X99.949Y-43.434
X99.949Y-65.659
X99.949Y-80.899
X99.949Y-87.249
X99.949Y-94.869
X102.489Y-28.194
X102.489Y-43.434
X102.489Y-65.659
X102.489Y-80.899
X105.029Y-28.194
X105.029Y-43.434
X105.029Y-65.659
X105.029Y-80.899
X107.569Y-28.194
X107.569Y-43.434
X110.109Y-28.194
X110.109Y-43.434
X112.649Y-14.859
X112.649Y-22.479
X112.649Y-28.194
X112.649Y-43.434
X115.189Y-14.859
X115.189Y-22.479
X117.729Y-14.859
X117.729Y-22.479
X120.269Y-14.859
X120.269Y-22.479
T4
X82.169Y-17.498
X82.169Y-22.38
T5
X14.224Y-12.954
X16.764Y-12.954
X19.304Y-12.954
T6
X37.719Y-82.677
X38.989Y-80.137
X40.259Y-82.677
X41.529Y-80.137
X42.799Y-82.677
X44.069Y-80.137
X45.339Y-82.677
X46.609Y-80.137
T7
X57.349Y-95.504
X61.849Y-95.504
X70.739Y-6.604
X75.239Y-6.604
T8
X11.684Y-96.139
X14.224Y-96.139
T9
X9.779Y-10.414
X9.779Y-12.954
X9.779Y-15.494
X9.779Y-40.259
X9.779Y-42.799
X9.779Y-45.339
X10.414Y-56.769
X10.414Y-59.309
X28.829Y-66.929
X30.734Y-80.264
X30.734Y-82.804
X30.734Y-85.344
X31.369Y-66.929
X33.909Y-66.929
X36.449Y-66.929
X38.989Y-66.929
X41.529Y-66.929
X56.134Y-42.799
X57.404Y-4.699
X57.404Y-7.239
X57.404Y-9.779
X57.404Y-12.319
X57.404Y-14.859
X92.329Y-6.604
X92.329Y-9.144
X94.869Y-6.604
X94.869Y-9.144
X97.409Y-6.604
X97.409Y-9.144
X117.729Y-47.879
X129.794Y-12.319
X129.794Y-14.859
X129.794Y-17.399
X129.794Y-19.939
X132.334Y-12.319
X132.334Y-14.859
X132.334Y-17.399
X132.334Y-19.939
X133.604Y-32.004
X133.604Y-34.544
X133.604Y-37.084
X133.604Y-39.624
X133.604Y-46.609
X133.604Y-49.149
X133.604Y-51.689
X133.604Y-54.229
X133.604Y-56.769
X133.604Y-59.309
X133.604Y-61.849
X133.604Y-64.389
X133.604Y-66.929
X133.604Y-69.469
X133.604Y-72.009
X133.604Y-74.549
X133.604Y-77.089
X133.604Y-79.629
X133.604Y-82.169
T10
X56.089Y-93.014
X63.099Y-93.014
X69.489Y-9.094
X76.499Y-9.094
T0
M30
