%FSLAX45Y45*%
G04 Gerber Fmt 4.5, Leading zero omitted, Abs format (unit mm)*
G04 Created by KiCad (PCBNEW (2015-07-01 BZR 5850, Git 51c0ae3)-product) date 08.09.2015 00:16:46*
%MOMM*%
G01*
G04 APERTURE LIST*
%ADD10C,0.127000*%
%ADD11C,0.100000*%
%ADD12C,0.200000*%
%ADD13C,0.300000*%
G04 APERTURE END LIST*
D10*
D11*
X4533900Y-2057400D02*
G75*
G03X4533900Y-2057400I-127000J0D01*
G01*
X5131703Y-7708900D02*
G75*
G03X5131703Y-7708900I-89803J0D01*
G01*
X3480703Y-7708900D02*
G75*
G03X3480703Y-7708900I-89803J0D01*
G01*
X3761005Y-8915400D02*
G75*
G03X3761005Y-8915400I-179605J0D01*
G01*
X5041900Y-8915400D02*
G75*
G03X5041900Y-8915400I-190500J0D01*
G01*
X14185900Y-9613900D02*
G75*
G03X14185900Y-9613900I-190500J0D01*
G01*
X14185900Y-406400D02*
G75*
G03X14185900Y-406400I-190500J0D01*
G01*
X14185900Y-406400D02*
G75*
G03X14185900Y-406400I-190500J0D01*
G01*
X14185900Y-406400D02*
G75*
G03X14185900Y-406400I-190500J0D01*
G01*
X14185900Y-406400D02*
G75*
G03X14185900Y-406400I-190500J0D01*
G01*
X596900Y-9613900D02*
G75*
G03X596900Y-9613900I-190500J0D01*
G01*
X596900Y-406400D02*
G75*
G03X596900Y-406400I-190500J0D01*
G01*
X596900Y-406400D02*
G75*
G03X596900Y-406400I-190500J0D01*
G01*
X5900Y-10005900D02*
X5900Y-5900D01*
X14405900Y-10005900D02*
X5900Y-10005900D01*
X14405900Y-5900D02*
X14405900Y-10005900D01*
X5900Y-5900D02*
X14405900Y-5900D01*
D12*
X1646400Y-8504400D02*
X1706400Y-8564400D01*
X1706400Y-8504400D02*
X1646400Y-8564400D01*
X1900400Y-4567400D02*
X1960400Y-4627400D01*
X1960400Y-4567400D02*
X1900400Y-4627400D01*
X2408400Y-2789400D02*
X2468400Y-2849400D01*
X2468400Y-2789400D02*
X2408400Y-2849400D01*
X2408400Y-4567400D02*
X2468400Y-4627400D01*
X2468400Y-4567400D02*
X2408400Y-4627400D01*
X2408400Y-6599400D02*
X2468400Y-6659400D01*
X2468400Y-6599400D02*
X2408400Y-6659400D01*
X2979900Y-7678900D02*
X3039900Y-7738900D01*
X3039900Y-7678900D02*
X2979900Y-7738900D01*
X5710400Y-5202400D02*
X5770400Y-5262400D01*
X5770400Y-5202400D02*
X5710400Y-5262400D01*
X8059900Y-8821900D02*
X8119900Y-8881900D01*
X8119900Y-8821900D02*
X8059900Y-8881900D01*
X8821900Y-884400D02*
X8881900Y-944400D01*
X8881900Y-884400D02*
X8821900Y-944400D01*
X9075900Y-7615400D02*
X9135900Y-7675400D01*
X9135900Y-7615400D02*
X9075900Y-7675400D01*
X10409400Y-1709900D02*
X10469400Y-1769900D01*
X10469400Y-1709900D02*
X10409400Y-1769900D01*
X10472900Y-7742400D02*
X10532900Y-7802400D01*
X10532900Y-7742400D02*
X10472900Y-7802400D01*
X10599900Y-693900D02*
X10659900Y-753900D01*
X10659900Y-693900D02*
X10599900Y-753900D01*
X12758900Y-5900900D02*
X12818900Y-5960900D01*
X12818900Y-5900900D02*
X12758900Y-5960900D01*
X12758900Y-9075900D02*
X12818900Y-9135900D01*
X12818900Y-9075900D02*
X12758900Y-9135900D01*
X12949400Y-3932400D02*
X13009400Y-3992400D01*
X13009400Y-3932400D02*
X12949400Y-3992400D01*
X1200150Y-533400D02*
G75*
G03X1200150Y-533400I-31750J0D01*
G01*
X1581150Y-1930400D02*
G75*
G03X1581150Y-1930400I-31750J0D01*
G01*
X1962150Y-3200400D02*
G75*
G03X1962150Y-3200400I-31750J0D01*
G01*
X2597150Y-9740900D02*
G75*
G03X2597150Y-9740900I-31750J0D01*
G01*
X2724150Y-6311900D02*
G75*
G03X2724150Y-6311900I-31750J0D01*
G01*
X2914650Y-469900D02*
G75*
G03X2914650Y-469900I-31750J0D01*
G01*
X3041650Y-1485900D02*
G75*
G03X3041650Y-1485900I-31750J0D01*
G01*
X3168650Y-5549900D02*
G75*
G03X3168650Y-5549900I-31750J0D01*
G01*
X3422650Y-4914900D02*
G75*
G03X3422650Y-4914900I-31750J0D01*
G01*
X3549650Y-2565400D02*
G75*
G03X3549650Y-2565400I-31750J0D01*
G01*
X3676650Y-1803400D02*
G75*
G03X3676650Y-1803400I-31750J0D01*
G01*
X3676650Y-4660900D02*
G75*
G03X3676650Y-4660900I-31750J0D01*
G01*
X3930650Y-4343400D02*
G75*
G03X3930650Y-4343400I-31750J0D01*
G01*
X4057650Y-1485900D02*
G75*
G03X4057650Y-1485900I-31750J0D01*
G01*
X4819650Y-1866900D02*
G75*
G03X4819650Y-1866900I-31750J0D01*
G01*
X5327650Y-7454900D02*
G75*
G03X5327650Y-7454900I-31750J0D01*
G01*
X5645150Y-4914900D02*
G75*
G03X5645150Y-4914900I-31750J0D01*
G01*
X5899150Y-4660900D02*
G75*
G03X5899150Y-4660900I-31750J0D01*
G01*
X6026150Y-5930900D02*
G75*
G03X6026150Y-5930900I-31750J0D01*
G01*
X6089650Y-4343400D02*
G75*
G03X6089650Y-4343400I-31750J0D01*
G01*
X6153150Y-723900D02*
G75*
G03X6153150Y-723900I-31750J0D01*
G01*
X6470650Y-2501900D02*
G75*
G03X6470650Y-2501900I-31750J0D01*
G01*
X6470650Y-3581400D02*
G75*
G03X6470650Y-3581400I-31750J0D01*
G01*
X6724650Y-3390900D02*
G75*
G03X6724650Y-3390900I-31750J0D01*
G01*
X6724650Y-5359400D02*
G75*
G03X6724650Y-5359400I-31750J0D01*
G01*
X6915150Y-5105400D02*
G75*
G03X6915150Y-5105400I-31750J0D01*
G01*
X6978650Y-5930900D02*
G75*
G03X6978650Y-5930900I-31750J0D01*
G01*
X6978650Y-6883400D02*
G75*
G03X6978650Y-6883400I-31750J0D01*
G01*
X7232650Y-4025900D02*
G75*
G03X7232650Y-4025900I-31750J0D01*
G01*
X7232650Y-7391400D02*
G75*
G03X7232650Y-7391400I-31750J0D01*
G01*
X7232650Y-8788400D02*
G75*
G03X7232650Y-8788400I-31750J0D01*
G01*
X7296150Y-1168400D02*
G75*
G03X7296150Y-1168400I-31750J0D01*
G01*
X7486650Y-3835400D02*
G75*
G03X7486650Y-3835400I-31750J0D01*
G01*
X7486650Y-7645400D02*
G75*
G03X7486650Y-7645400I-31750J0D01*
G01*
X7740650Y-3835400D02*
G75*
G03X7740650Y-3835400I-31750J0D01*
G01*
X7740650Y-7137400D02*
G75*
G03X7740650Y-7137400I-31750J0D01*
G01*
X7994650Y-3136900D02*
G75*
G03X7994650Y-3136900I-31750J0D01*
G01*
X8248650Y-5359400D02*
G75*
G03X8248650Y-5359400I-31750J0D01*
G01*
X8502650Y-4597400D02*
G75*
G03X8502650Y-4597400I-31750J0D01*
G01*
X8502650Y-5359400D02*
G75*
G03X8502650Y-5359400I-31750J0D01*
G01*
X8502650Y-6184900D02*
G75*
G03X8502650Y-6184900I-31750J0D01*
G01*
X8502650Y-8407400D02*
G75*
G03X8502650Y-8407400I-31750J0D01*
G01*
X8629650Y-660400D02*
G75*
G03X8629650Y-660400I-31750J0D01*
G01*
X8756650Y-4851400D02*
G75*
G03X8756650Y-4851400I-31750J0D01*
G01*
X8883650Y-1168400D02*
G75*
G03X8883650Y-1168400I-31750J0D01*
G01*
X9010650Y-6184900D02*
G75*
G03X9010650Y-6184900I-31750J0D01*
G01*
X9264650Y-1549400D02*
G75*
G03X9264650Y-1549400I-31750J0D01*
G01*
X9264650Y-5613400D02*
G75*
G03X9264650Y-5613400I-31750J0D01*
G01*
X9518650Y-4660900D02*
G75*
G03X9518650Y-4660900I-31750J0D01*
G01*
X9772650Y-1168400D02*
G75*
G03X9772650Y-1168400I-31750J0D01*
G01*
X9772650Y-1549400D02*
G75*
G03X9772650Y-1549400I-31750J0D01*
G01*
X9772650Y-4914900D02*
G75*
G03X9772650Y-4914900I-31750J0D01*
G01*
X10026650Y-1739900D02*
G75*
G03X10026650Y-1739900I-31750J0D01*
G01*
X10026650Y-5168900D02*
G75*
G03X10026650Y-5168900I-31750J0D01*
G01*
X10153650Y-660400D02*
G75*
G03X10153650Y-660400I-31750J0D01*
G01*
X10280650Y-1993900D02*
G75*
G03X10280650Y-1993900I-31750J0D01*
G01*
X10280650Y-5422900D02*
G75*
G03X10280650Y-5422900I-31750J0D01*
G01*
X10471150Y-9486900D02*
G75*
G03X10471150Y-9486900I-31750J0D01*
G01*
X10534650Y-5676900D02*
G75*
G03X10534650Y-5676900I-31750J0D01*
G01*
X10661650Y-1993900D02*
G75*
G03X10661650Y-1993900I-31750J0D01*
G01*
X10661650Y-9105900D02*
G75*
G03X10661650Y-9105900I-31750J0D01*
G01*
X10788650Y-7518400D02*
G75*
G03X10788650Y-7518400I-31750J0D01*
G01*
X10915650Y-2247900D02*
G75*
G03X10915650Y-2247900I-31750J0D01*
G01*
X11042650Y-3136900D02*
G75*
G03X11042650Y-3136900I-31750J0D01*
G01*
X11042650Y-7962900D02*
G75*
G03X11042650Y-7962900I-31750J0D01*
G01*
X11233150Y-787400D02*
G75*
G03X11233150Y-787400I-31750J0D01*
G01*
X11296650Y-8216900D02*
G75*
G03X11296650Y-8216900I-31750J0D01*
G01*
X11931650Y-2882900D02*
G75*
G03X11931650Y-2882900I-31750J0D01*
G01*
X11995150Y-3390900D02*
G75*
G03X11995150Y-3390900I-31750J0D01*
G01*
X12058650Y-1168400D02*
G75*
G03X12058650Y-1168400I-31750J0D01*
G01*
X12312650Y-2628900D02*
G75*
G03X12312650Y-2628900I-31750J0D01*
G01*
X12312650Y-3136900D02*
G75*
G03X12312650Y-3136900I-31750J0D01*
G01*
X12566650Y-1485900D02*
G75*
G03X12566650Y-1485900I-31750J0D01*
G01*
X12884150Y-6692900D02*
G75*
G03X12884150Y-6692900I-31750J0D01*
G01*
X12884150Y-7200900D02*
G75*
G03X12884150Y-7200900I-31750J0D01*
G01*
X12884150Y-7708900D02*
G75*
G03X12884150Y-7708900I-31750J0D01*
G01*
X12884150Y-8216900D02*
G75*
G03X12884150Y-8216900I-31750J0D01*
G01*
X13011150Y-533400D02*
G75*
G03X13011150Y-533400I-31750J0D01*
G01*
X13074650Y-6438900D02*
G75*
G03X13074650Y-6438900I-31750J0D01*
G01*
X13074650Y-6946900D02*
G75*
G03X13074650Y-6946900I-31750J0D01*
G01*
X13074650Y-7454900D02*
G75*
G03X13074650Y-7454900I-31750J0D01*
G01*
X13074650Y-7962900D02*
G75*
G03X13074650Y-7962900I-31750J0D01*
G01*
X13265150Y-2311400D02*
G75*
G03X13265150Y-2311400I-31750J0D01*
G01*
X13392150Y-2882900D02*
G75*
G03X13392150Y-2882900I-31750J0D01*
G01*
X13519150Y-1485900D02*
G75*
G03X13519150Y-1485900I-31750J0D01*
G01*
X13709650Y-1739900D02*
G75*
G03X13709650Y-1739900I-31750J0D01*
G01*
X660400Y-7287900D02*
X660400Y-7367900D01*
X620400Y-7327900D02*
X700400Y-7327900D01*
X660400Y-7541900D02*
X660400Y-7621900D01*
X620400Y-7581900D02*
X700400Y-7581900D01*
X1422400Y-7287900D02*
X1422400Y-7367900D01*
X1382400Y-7327900D02*
X1462400Y-7327900D01*
X1422400Y-7541900D02*
X1422400Y-7621900D01*
X1382400Y-7581900D02*
X1462400Y-7581900D01*
X6438900Y-2779400D02*
X6438900Y-2859400D01*
X6398900Y-2819400D02*
X6478900Y-2819400D01*
X6438900Y-4303400D02*
X6438900Y-4383400D01*
X6398900Y-4343400D02*
X6478900Y-4343400D01*
X6692900Y-2779400D02*
X6692900Y-2859400D01*
X6652900Y-2819400D02*
X6732900Y-2819400D01*
X6692900Y-4303400D02*
X6692900Y-4383400D01*
X6652900Y-4343400D02*
X6732900Y-4343400D01*
X6692900Y-6525900D02*
X6692900Y-6605900D01*
X6652900Y-6565900D02*
X6732900Y-6565900D01*
X6692900Y-8049900D02*
X6692900Y-8129900D01*
X6652900Y-8089900D02*
X6732900Y-8089900D01*
X6946900Y-2779400D02*
X6946900Y-2859400D01*
X6906900Y-2819400D02*
X6986900Y-2819400D01*
X6946900Y-4303400D02*
X6946900Y-4383400D01*
X6906900Y-4343400D02*
X6986900Y-4343400D01*
X6946900Y-6525900D02*
X6946900Y-6605900D01*
X6906900Y-6565900D02*
X6986900Y-6565900D01*
X6946900Y-8049900D02*
X6946900Y-8129900D01*
X6906900Y-8089900D02*
X6986900Y-8089900D01*
X7200900Y-2779400D02*
X7200900Y-2859400D01*
X7160900Y-2819400D02*
X7240900Y-2819400D01*
X7200900Y-4303400D02*
X7200900Y-4383400D01*
X7160900Y-4343400D02*
X7240900Y-4343400D01*
X7200900Y-6525900D02*
X7200900Y-6605900D01*
X7160900Y-6565900D02*
X7240900Y-6565900D01*
X7200900Y-8049900D02*
X7200900Y-8129900D01*
X7160900Y-8089900D02*
X7240900Y-8089900D01*
X7454900Y-2779400D02*
X7454900Y-2859400D01*
X7414900Y-2819400D02*
X7494900Y-2819400D01*
X7454900Y-4303400D02*
X7454900Y-4383400D01*
X7414900Y-4343400D02*
X7494900Y-4343400D01*
X7454900Y-5065400D02*
X7454900Y-5145400D01*
X7414900Y-5105400D02*
X7494900Y-5105400D01*
X7454900Y-5827400D02*
X7454900Y-5907400D01*
X7414900Y-5867400D02*
X7494900Y-5867400D01*
X7454900Y-6525900D02*
X7454900Y-6605900D01*
X7414900Y-6565900D02*
X7494900Y-6565900D01*
X7454900Y-8049900D02*
X7454900Y-8129900D01*
X7414900Y-8089900D02*
X7494900Y-8089900D01*
X7708900Y-2779400D02*
X7708900Y-2859400D01*
X7668900Y-2819400D02*
X7748900Y-2819400D01*
X7708900Y-4303400D02*
X7708900Y-4383400D01*
X7668900Y-4343400D02*
X7748900Y-4343400D01*
X7708900Y-5065400D02*
X7708900Y-5145400D01*
X7668900Y-5105400D02*
X7748900Y-5105400D01*
X7708900Y-5827400D02*
X7708900Y-5907400D01*
X7668900Y-5867400D02*
X7748900Y-5867400D01*
X7708900Y-6525900D02*
X7708900Y-6605900D01*
X7668900Y-6565900D02*
X7748900Y-6565900D01*
X7708900Y-8049900D02*
X7708900Y-8129900D01*
X7668900Y-8089900D02*
X7748900Y-8089900D01*
X7962900Y-2779400D02*
X7962900Y-2859400D01*
X7922900Y-2819400D02*
X8002900Y-2819400D01*
X7962900Y-4303400D02*
X7962900Y-4383400D01*
X7922900Y-4343400D02*
X8002900Y-4343400D01*
X7962900Y-5065400D02*
X7962900Y-5145400D01*
X7922900Y-5105400D02*
X8002900Y-5105400D01*
X7962900Y-5827400D02*
X7962900Y-5907400D01*
X7922900Y-5867400D02*
X8002900Y-5867400D01*
X7962900Y-6525900D02*
X7962900Y-6605900D01*
X7922900Y-6565900D02*
X8002900Y-6565900D01*
X7962900Y-8049900D02*
X7962900Y-8129900D01*
X7922900Y-8089900D02*
X8002900Y-8089900D01*
X8216900Y-2779400D02*
X8216900Y-2859400D01*
X8176900Y-2819400D02*
X8256900Y-2819400D01*
X8216900Y-4303400D02*
X8216900Y-4383400D01*
X8176900Y-4343400D02*
X8256900Y-4343400D01*
X8216900Y-5065400D02*
X8216900Y-5145400D01*
X8176900Y-5105400D02*
X8256900Y-5105400D01*
X8216900Y-5827400D02*
X8216900Y-5907400D01*
X8176900Y-5867400D02*
X8256900Y-5867400D01*
X8216900Y-6525900D02*
X8216900Y-6605900D01*
X8176900Y-6565900D02*
X8256900Y-6565900D01*
X8216900Y-8049900D02*
X8216900Y-8129900D01*
X8176900Y-8089900D02*
X8256900Y-8089900D01*
X8470900Y-2779400D02*
X8470900Y-2859400D01*
X8430900Y-2819400D02*
X8510900Y-2819400D01*
X8470900Y-4303400D02*
X8470900Y-4383400D01*
X8430900Y-4343400D02*
X8510900Y-4343400D01*
X8470900Y-5065400D02*
X8470900Y-5145400D01*
X8430900Y-5105400D02*
X8510900Y-5105400D01*
X8470900Y-5827400D02*
X8470900Y-5907400D01*
X8430900Y-5867400D02*
X8510900Y-5867400D01*
X8470900Y-6525900D02*
X8470900Y-6605900D01*
X8430900Y-6565900D02*
X8510900Y-6565900D01*
X8470900Y-8049900D02*
X8470900Y-8129900D01*
X8430900Y-8089900D02*
X8510900Y-8089900D01*
X8470900Y-8684900D02*
X8470900Y-8764900D01*
X8430900Y-8724900D02*
X8510900Y-8724900D01*
X8470900Y-9446900D02*
X8470900Y-9526900D01*
X8430900Y-9486900D02*
X8510900Y-9486900D01*
X8724900Y-2779400D02*
X8724900Y-2859400D01*
X8684900Y-2819400D02*
X8764900Y-2819400D01*
X8724900Y-4303400D02*
X8724900Y-4383400D01*
X8684900Y-4343400D02*
X8764900Y-4343400D01*
X8724900Y-5065400D02*
X8724900Y-5145400D01*
X8684900Y-5105400D02*
X8764900Y-5105400D01*
X8724900Y-5827400D02*
X8724900Y-5907400D01*
X8684900Y-5867400D02*
X8764900Y-5867400D01*
X8724900Y-6525900D02*
X8724900Y-6605900D01*
X8684900Y-6565900D02*
X8764900Y-6565900D01*
X8724900Y-8049900D02*
X8724900Y-8129900D01*
X8684900Y-8089900D02*
X8764900Y-8089900D01*
X8724900Y-8684900D02*
X8724900Y-8764900D01*
X8684900Y-8724900D02*
X8764900Y-8724900D01*
X8724900Y-9446900D02*
X8724900Y-9526900D01*
X8684900Y-9486900D02*
X8764900Y-9486900D01*
X8978900Y-2779400D02*
X8978900Y-2859400D01*
X8938900Y-2819400D02*
X9018900Y-2819400D01*
X8978900Y-4303400D02*
X8978900Y-4383400D01*
X8938900Y-4343400D02*
X9018900Y-4343400D01*
X8978900Y-5065400D02*
X8978900Y-5145400D01*
X8938900Y-5105400D02*
X9018900Y-5105400D01*
X8978900Y-5827400D02*
X8978900Y-5907400D01*
X8938900Y-5867400D02*
X9018900Y-5867400D01*
X8978900Y-6525900D02*
X8978900Y-6605900D01*
X8938900Y-6565900D02*
X9018900Y-6565900D01*
X8978900Y-8049900D02*
X8978900Y-8129900D01*
X8938900Y-8089900D02*
X9018900Y-8089900D01*
X8978900Y-8684900D02*
X8978900Y-8764900D01*
X8938900Y-8724900D02*
X9018900Y-8724900D01*
X8978900Y-9446900D02*
X8978900Y-9526900D01*
X8938900Y-9486900D02*
X9018900Y-9486900D01*
X9232900Y-2779400D02*
X9232900Y-2859400D01*
X9192900Y-2819400D02*
X9272900Y-2819400D01*
X9232900Y-4303400D02*
X9232900Y-4383400D01*
X9192900Y-4343400D02*
X9272900Y-4343400D01*
X9232900Y-6525900D02*
X9232900Y-6605900D01*
X9192900Y-6565900D02*
X9272900Y-6565900D01*
X9232900Y-8049900D02*
X9232900Y-8129900D01*
X9192900Y-8089900D02*
X9272900Y-8089900D01*
X9232900Y-8684900D02*
X9232900Y-8764900D01*
X9192900Y-8724900D02*
X9272900Y-8724900D01*
X9232900Y-9446900D02*
X9232900Y-9526900D01*
X9192900Y-9486900D02*
X9272900Y-9486900D01*
X9486900Y-2779400D02*
X9486900Y-2859400D01*
X9446900Y-2819400D02*
X9526900Y-2819400D01*
X9486900Y-4303400D02*
X9486900Y-4383400D01*
X9446900Y-4343400D02*
X9526900Y-4343400D01*
X9486900Y-6525900D02*
X9486900Y-6605900D01*
X9446900Y-6565900D02*
X9526900Y-6565900D01*
X9486900Y-8049900D02*
X9486900Y-8129900D01*
X9446900Y-8089900D02*
X9526900Y-8089900D01*
X9486900Y-8684900D02*
X9486900Y-8764900D01*
X9446900Y-8724900D02*
X9526900Y-8724900D01*
X9486900Y-9446900D02*
X9486900Y-9526900D01*
X9446900Y-9486900D02*
X9526900Y-9486900D01*
X9740900Y-2779400D02*
X9740900Y-2859400D01*
X9700900Y-2819400D02*
X9780900Y-2819400D01*
X9740900Y-4303400D02*
X9740900Y-4383400D01*
X9700900Y-4343400D02*
X9780900Y-4343400D01*
X9740900Y-6525900D02*
X9740900Y-6605900D01*
X9700900Y-6565900D02*
X9780900Y-6565900D01*
X9740900Y-8049900D02*
X9740900Y-8129900D01*
X9700900Y-8089900D02*
X9780900Y-8089900D01*
X9740900Y-8684900D02*
X9740900Y-8764900D01*
X9700900Y-8724900D02*
X9780900Y-8724900D01*
X9740900Y-9446900D02*
X9740900Y-9526900D01*
X9700900Y-9486900D02*
X9780900Y-9486900D01*
X9994900Y-2779400D02*
X9994900Y-2859400D01*
X9954900Y-2819400D02*
X10034900Y-2819400D01*
X9994900Y-4303400D02*
X9994900Y-4383400D01*
X9954900Y-4343400D02*
X10034900Y-4343400D01*
X9994900Y-6525900D02*
X9994900Y-6605900D01*
X9954900Y-6565900D02*
X10034900Y-6565900D01*
X9994900Y-8049900D02*
X9994900Y-8129900D01*
X9954900Y-8089900D02*
X10034900Y-8089900D01*
X9994900Y-8684900D02*
X9994900Y-8764900D01*
X9954900Y-8724900D02*
X10034900Y-8724900D01*
X9994900Y-9446900D02*
X9994900Y-9526900D01*
X9954900Y-9486900D02*
X10034900Y-9486900D01*
X10248900Y-2779400D02*
X10248900Y-2859400D01*
X10208900Y-2819400D02*
X10288900Y-2819400D01*
X10248900Y-4303400D02*
X10248900Y-4383400D01*
X10208900Y-4343400D02*
X10288900Y-4343400D01*
X10248900Y-6525900D02*
X10248900Y-6605900D01*
X10208900Y-6565900D02*
X10288900Y-6565900D01*
X10248900Y-8049900D02*
X10248900Y-8129900D01*
X10208900Y-8089900D02*
X10288900Y-8089900D01*
X10502900Y-2779400D02*
X10502900Y-2859400D01*
X10462900Y-2819400D02*
X10542900Y-2819400D01*
X10502900Y-4303400D02*
X10502900Y-4383400D01*
X10462900Y-4343400D02*
X10542900Y-4343400D01*
X10502900Y-6525900D02*
X10502900Y-6605900D01*
X10462900Y-6565900D02*
X10542900Y-6565900D01*
X10502900Y-8049900D02*
X10502900Y-8129900D01*
X10462900Y-8089900D02*
X10542900Y-8089900D01*
X10756900Y-2779400D02*
X10756900Y-2859400D01*
X10716900Y-2819400D02*
X10796900Y-2819400D01*
X10756900Y-4303400D02*
X10756900Y-4383400D01*
X10716900Y-4343400D02*
X10796900Y-4343400D01*
X11010900Y-2779400D02*
X11010900Y-2859400D01*
X10970900Y-2819400D02*
X11050900Y-2819400D01*
X11010900Y-4303400D02*
X11010900Y-4383400D01*
X10970900Y-4343400D02*
X11050900Y-4343400D01*
X11264900Y-1445900D02*
X11264900Y-1525900D01*
X11224900Y-1485900D02*
X11304900Y-1485900D01*
X11264900Y-2207900D02*
X11264900Y-2287900D01*
X11224900Y-2247900D02*
X11304900Y-2247900D01*
X11264900Y-2779400D02*
X11264900Y-2859400D01*
X11224900Y-2819400D02*
X11304900Y-2819400D01*
X11264900Y-4303400D02*
X11264900Y-4383400D01*
X11224900Y-4343400D02*
X11304900Y-4343400D01*
X11518900Y-1445900D02*
X11518900Y-1525900D01*
X11478900Y-1485900D02*
X11558900Y-1485900D01*
X11518900Y-2207900D02*
X11518900Y-2287900D01*
X11478900Y-2247900D02*
X11558900Y-2247900D01*
X11772900Y-1445900D02*
X11772900Y-1525900D01*
X11732900Y-1485900D02*
X11812900Y-1485900D01*
X11772900Y-2207900D02*
X11772900Y-2287900D01*
X11732900Y-2247900D02*
X11812900Y-2247900D01*
X12026900Y-1445900D02*
X12026900Y-1525900D01*
X11986900Y-1485900D02*
X12066900Y-1485900D01*
X12026900Y-2207900D02*
X12026900Y-2287900D01*
X11986900Y-2247900D02*
X12066900Y-2247900D01*
X8245188Y-1778094D02*
X8245188Y-1721518D01*
X8188612Y-1721518D01*
X8188612Y-1778094D01*
X8245188Y-1778094D01*
X8245188Y-2266282D02*
X8245188Y-2209706D01*
X8188612Y-2209706D01*
X8188612Y-2266282D01*
X8245188Y-2266282D01*
X1422400Y-1336040D02*
X1463040Y-1295400D01*
X1422400Y-1254760D01*
X1381760Y-1295400D01*
X1422400Y-1336040D01*
X1676400Y-1336040D02*
X1717040Y-1295400D01*
X1676400Y-1254760D01*
X1635760Y-1295400D01*
X1676400Y-1336040D01*
X1930400Y-1336040D02*
X1971040Y-1295400D01*
X1930400Y-1254760D01*
X1889760Y-1295400D01*
X1930400Y-1336040D01*
X3727450Y-8223250D02*
X3816350Y-8312150D01*
X3816350Y-8223250D02*
X3727450Y-8312150D01*
X3816350Y-8267700D02*
G75*
G03X3816350Y-8267700I-44450J0D01*
G01*
X3854450Y-7969250D02*
X3943350Y-8058150D01*
X3943350Y-7969250D02*
X3854450Y-8058150D01*
X3943350Y-8013700D02*
G75*
G03X3943350Y-8013700I-44450J0D01*
G01*
X3981450Y-8223250D02*
X4070350Y-8312150D01*
X4070350Y-8223250D02*
X3981450Y-8312150D01*
X4070350Y-8267700D02*
G75*
G03X4070350Y-8267700I-44450J0D01*
G01*
X4108450Y-7969250D02*
X4197350Y-8058150D01*
X4197350Y-7969250D02*
X4108450Y-8058150D01*
X4197350Y-8013700D02*
G75*
G03X4197350Y-8013700I-44450J0D01*
G01*
X4235450Y-8223250D02*
X4324350Y-8312150D01*
X4324350Y-8223250D02*
X4235450Y-8312150D01*
X4324350Y-8267700D02*
G75*
G03X4324350Y-8267700I-44450J0D01*
G01*
X4362450Y-7969250D02*
X4451350Y-8058150D01*
X4451350Y-7969250D02*
X4362450Y-8058150D01*
X4451350Y-8013700D02*
G75*
G03X4451350Y-8013700I-44450J0D01*
G01*
X4489450Y-8223250D02*
X4578350Y-8312150D01*
X4578350Y-8223250D02*
X4489450Y-8312150D01*
X4578350Y-8267700D02*
G75*
G03X4578350Y-8267700I-44450J0D01*
G01*
X4616450Y-7969250D02*
X4705350Y-8058150D01*
X4705350Y-7969250D02*
X4616450Y-8058150D01*
X4705350Y-8013700D02*
G75*
G03X4705350Y-8013700I-44450J0D01*
G01*
X5685400Y-9500900D02*
X5784400Y-9599900D01*
X5784400Y-9500900D02*
X5685400Y-9599900D01*
X5734900Y-9500900D02*
X5734900Y-9599900D01*
X5685400Y-9550400D02*
X5784400Y-9550400D01*
X6135400Y-9500900D02*
X6234400Y-9599900D01*
X6234400Y-9500900D02*
X6135400Y-9599900D01*
X6184900Y-9500900D02*
X6184900Y-9599900D01*
X6135400Y-9550400D02*
X6234400Y-9550400D01*
X7024400Y-610900D02*
X7123400Y-709900D01*
X7123400Y-610900D02*
X7024400Y-709900D01*
X7073900Y-610900D02*
X7073900Y-709900D01*
X7024400Y-660400D02*
X7123400Y-660400D01*
X7474400Y-610900D02*
X7573400Y-709900D01*
X7573400Y-610900D02*
X7474400Y-709900D01*
X7523900Y-610900D02*
X7523900Y-709900D01*
X7474400Y-660400D02*
X7573400Y-660400D01*
X1118489Y-9563989D02*
X1218311Y-9663811D01*
X1218311Y-9563989D02*
X1118489Y-9663811D01*
X1203693Y-9649193D02*
X1203693Y-9578607D01*
X1133107Y-9578607D01*
X1133107Y-9649193D01*
X1203693Y-9649193D01*
X1372489Y-9563989D02*
X1472311Y-9663811D01*
X1472311Y-9563989D02*
X1372489Y-9663811D01*
X1457693Y-9649193D02*
X1457693Y-9578607D01*
X1387107Y-9578607D01*
X1387107Y-9649193D01*
X1457693Y-9649193D01*
X927100Y-990600D02*
X1028700Y-1092200D01*
X1028700Y-990600D02*
X927100Y-1092200D01*
X977900Y-1092200D02*
X1028700Y-1041400D01*
X977900Y-990600D01*
X927100Y-1041400D01*
X977900Y-1092200D01*
X927100Y-1244600D02*
X1028700Y-1346200D01*
X1028700Y-1244600D02*
X927100Y-1346200D01*
X977900Y-1346200D02*
X1028700Y-1295400D01*
X977900Y-1244600D01*
X927100Y-1295400D01*
X977900Y-1346200D01*
X927100Y-1498600D02*
X1028700Y-1600200D01*
X1028700Y-1498600D02*
X927100Y-1600200D01*
X977900Y-1600200D02*
X1028700Y-1549400D01*
X977900Y-1498600D01*
X927100Y-1549400D01*
X977900Y-1600200D01*
X927100Y-3975100D02*
X1028700Y-4076700D01*
X1028700Y-3975100D02*
X927100Y-4076700D01*
X977900Y-4076700D02*
X1028700Y-4025900D01*
X977900Y-3975100D01*
X927100Y-4025900D01*
X977900Y-4076700D01*
X927100Y-4229100D02*
X1028700Y-4330700D01*
X1028700Y-4229100D02*
X927100Y-4330700D01*
X977900Y-4330700D02*
X1028700Y-4279900D01*
X977900Y-4229100D01*
X927100Y-4279900D01*
X977900Y-4330700D01*
X927100Y-4483100D02*
X1028700Y-4584700D01*
X1028700Y-4483100D02*
X927100Y-4584700D01*
X977900Y-4584700D02*
X1028700Y-4533900D01*
X977900Y-4483100D01*
X927100Y-4533900D01*
X977900Y-4584700D01*
X990600Y-5626100D02*
X1092200Y-5727700D01*
X1092200Y-5626100D02*
X990600Y-5727700D01*
X1041400Y-5727700D02*
X1092200Y-5676900D01*
X1041400Y-5626100D01*
X990600Y-5676900D01*
X1041400Y-5727700D01*
X990600Y-5880100D02*
X1092200Y-5981700D01*
X1092200Y-5880100D02*
X990600Y-5981700D01*
X1041400Y-5981700D02*
X1092200Y-5930900D01*
X1041400Y-5880100D01*
X990600Y-5930900D01*
X1041400Y-5981700D01*
X2832100Y-6642100D02*
X2933700Y-6743700D01*
X2933700Y-6642100D02*
X2832100Y-6743700D01*
X2882900Y-6743700D02*
X2933700Y-6692900D01*
X2882900Y-6642100D01*
X2832100Y-6692900D01*
X2882900Y-6743700D01*
X3022600Y-7975600D02*
X3124200Y-8077200D01*
X3124200Y-7975600D02*
X3022600Y-8077200D01*
X3073400Y-8077200D02*
X3124200Y-8026400D01*
X3073400Y-7975600D01*
X3022600Y-8026400D01*
X3073400Y-8077200D01*
X3022600Y-8229600D02*
X3124200Y-8331200D01*
X3124200Y-8229600D02*
X3022600Y-8331200D01*
X3073400Y-8331200D02*
X3124200Y-8280400D01*
X3073400Y-8229600D01*
X3022600Y-8280400D01*
X3073400Y-8331200D01*
X3022600Y-8483600D02*
X3124200Y-8585200D01*
X3124200Y-8483600D02*
X3022600Y-8585200D01*
X3073400Y-8585200D02*
X3124200Y-8534400D01*
X3073400Y-8483600D01*
X3022600Y-8534400D01*
X3073400Y-8585200D01*
X3086100Y-6642100D02*
X3187700Y-6743700D01*
X3187700Y-6642100D02*
X3086100Y-6743700D01*
X3136900Y-6743700D02*
X3187700Y-6692900D01*
X3136900Y-6642100D01*
X3086100Y-6692900D01*
X3136900Y-6743700D01*
X3340100Y-6642100D02*
X3441700Y-6743700D01*
X3441700Y-6642100D02*
X3340100Y-6743700D01*
X3390900Y-6743700D02*
X3441700Y-6692900D01*
X3390900Y-6642100D01*
X3340100Y-6692900D01*
X3390900Y-6743700D01*
X3594100Y-6642100D02*
X3695700Y-6743700D01*
X3695700Y-6642100D02*
X3594100Y-6743700D01*
X3644900Y-6743700D02*
X3695700Y-6692900D01*
X3644900Y-6642100D01*
X3594100Y-6692900D01*
X3644900Y-6743700D01*
X3848100Y-6642100D02*
X3949700Y-6743700D01*
X3949700Y-6642100D02*
X3848100Y-6743700D01*
X3898900Y-6743700D02*
X3949700Y-6692900D01*
X3898900Y-6642100D01*
X3848100Y-6692900D01*
X3898900Y-6743700D01*
X4102100Y-6642100D02*
X4203700Y-6743700D01*
X4203700Y-6642100D02*
X4102100Y-6743700D01*
X4152900Y-6743700D02*
X4203700Y-6692900D01*
X4152900Y-6642100D01*
X4102100Y-6692900D01*
X4152900Y-6743700D01*
X5562600Y-4229100D02*
X5664200Y-4330700D01*
X5664200Y-4229100D02*
X5562600Y-4330700D01*
X5613400Y-4330700D02*
X5664200Y-4279900D01*
X5613400Y-4229100D01*
X5562600Y-4279900D01*
X5613400Y-4330700D01*
X5689600Y-419100D02*
X5791200Y-520700D01*
X5791200Y-419100D02*
X5689600Y-520700D01*
X5740400Y-520700D02*
X5791200Y-469900D01*
X5740400Y-419100D01*
X5689600Y-469900D01*
X5740400Y-520700D01*
X5689600Y-673100D02*
X5791200Y-774700D01*
X5791200Y-673100D02*
X5689600Y-774700D01*
X5740400Y-774700D02*
X5791200Y-723900D01*
X5740400Y-673100D01*
X5689600Y-723900D01*
X5740400Y-774700D01*
X5689600Y-927100D02*
X5791200Y-1028700D01*
X5791200Y-927100D02*
X5689600Y-1028700D01*
X5740400Y-1028700D02*
X5791200Y-977900D01*
X5740400Y-927100D01*
X5689600Y-977900D01*
X5740400Y-1028700D01*
X5689600Y-1181100D02*
X5791200Y-1282700D01*
X5791200Y-1181100D02*
X5689600Y-1282700D01*
X5740400Y-1282700D02*
X5791200Y-1231900D01*
X5740400Y-1181100D01*
X5689600Y-1231900D01*
X5740400Y-1282700D01*
X5689600Y-1435100D02*
X5791200Y-1536700D01*
X5791200Y-1435100D02*
X5689600Y-1536700D01*
X5740400Y-1536700D02*
X5791200Y-1485900D01*
X5740400Y-1435100D01*
X5689600Y-1485900D01*
X5740400Y-1536700D01*
X9182100Y-609600D02*
X9283700Y-711200D01*
X9283700Y-609600D02*
X9182100Y-711200D01*
X9232900Y-711200D02*
X9283700Y-660400D01*
X9232900Y-609600D01*
X9182100Y-660400D01*
X9232900Y-711200D01*
X9182100Y-863600D02*
X9283700Y-965200D01*
X9283700Y-863600D02*
X9182100Y-965200D01*
X9232900Y-965200D02*
X9283700Y-914400D01*
X9232900Y-863600D01*
X9182100Y-914400D01*
X9232900Y-965200D01*
X9436100Y-609600D02*
X9537700Y-711200D01*
X9537700Y-609600D02*
X9436100Y-711200D01*
X9486900Y-711200D02*
X9537700Y-660400D01*
X9486900Y-609600D01*
X9436100Y-660400D01*
X9486900Y-711200D01*
X9436100Y-863600D02*
X9537700Y-965200D01*
X9537700Y-863600D02*
X9436100Y-965200D01*
X9486900Y-965200D02*
X9537700Y-914400D01*
X9486900Y-863600D01*
X9436100Y-914400D01*
X9486900Y-965200D01*
X9690100Y-609600D02*
X9791700Y-711200D01*
X9791700Y-609600D02*
X9690100Y-711200D01*
X9740900Y-711200D02*
X9791700Y-660400D01*
X9740900Y-609600D01*
X9690100Y-660400D01*
X9740900Y-711200D01*
X9690100Y-863600D02*
X9791700Y-965200D01*
X9791700Y-863600D02*
X9690100Y-965200D01*
X9740900Y-965200D02*
X9791700Y-914400D01*
X9740900Y-863600D01*
X9690100Y-914400D01*
X9740900Y-965200D01*
X11722100Y-4737100D02*
X11823700Y-4838700D01*
X11823700Y-4737100D02*
X11722100Y-4838700D01*
X11772900Y-4838700D02*
X11823700Y-4787900D01*
X11772900Y-4737100D01*
X11722100Y-4787900D01*
X11772900Y-4838700D01*
X12928600Y-1181100D02*
X13030200Y-1282700D01*
X13030200Y-1181100D02*
X12928600Y-1282700D01*
X12979400Y-1282700D02*
X13030200Y-1231900D01*
X12979400Y-1181100D01*
X12928600Y-1231900D01*
X12979400Y-1282700D01*
X12928600Y-1435100D02*
X13030200Y-1536700D01*
X13030200Y-1435100D02*
X12928600Y-1536700D01*
X12979400Y-1536700D02*
X13030200Y-1485900D01*
X12979400Y-1435100D01*
X12928600Y-1485900D01*
X12979400Y-1536700D01*
X12928600Y-1689100D02*
X13030200Y-1790700D01*
X13030200Y-1689100D02*
X12928600Y-1790700D01*
X12979400Y-1790700D02*
X13030200Y-1739900D01*
X12979400Y-1689100D01*
X12928600Y-1739900D01*
X12979400Y-1790700D01*
X12928600Y-1943100D02*
X13030200Y-2044700D01*
X13030200Y-1943100D02*
X12928600Y-2044700D01*
X12979400Y-2044700D02*
X13030200Y-1993900D01*
X12979400Y-1943100D01*
X12928600Y-1993900D01*
X12979400Y-2044700D01*
X13182600Y-1181100D02*
X13284200Y-1282700D01*
X13284200Y-1181100D02*
X13182600Y-1282700D01*
X13233400Y-1282700D02*
X13284200Y-1231900D01*
X13233400Y-1181100D01*
X13182600Y-1231900D01*
X13233400Y-1282700D01*
X13182600Y-1435100D02*
X13284200Y-1536700D01*
X13284200Y-1435100D02*
X13182600Y-1536700D01*
X13233400Y-1536700D02*
X13284200Y-1485900D01*
X13233400Y-1435100D01*
X13182600Y-1485900D01*
X13233400Y-1536700D01*
X13182600Y-1689100D02*
X13284200Y-1790700D01*
X13284200Y-1689100D02*
X13182600Y-1790700D01*
X13233400Y-1790700D02*
X13284200Y-1739900D01*
X13233400Y-1689100D01*
X13182600Y-1739900D01*
X13233400Y-1790700D01*
X13182600Y-1943100D02*
X13284200Y-2044700D01*
X13284200Y-1943100D02*
X13182600Y-2044700D01*
X13233400Y-2044700D02*
X13284200Y-1993900D01*
X13233400Y-1943100D01*
X13182600Y-1993900D01*
X13233400Y-2044700D01*
X13309600Y-3149600D02*
X13411200Y-3251200D01*
X13411200Y-3149600D02*
X13309600Y-3251200D01*
X13360400Y-3251200D02*
X13411200Y-3200400D01*
X13360400Y-3149600D01*
X13309600Y-3200400D01*
X13360400Y-3251200D01*
X13309600Y-3403600D02*
X13411200Y-3505200D01*
X13411200Y-3403600D02*
X13309600Y-3505200D01*
X13360400Y-3505200D02*
X13411200Y-3454400D01*
X13360400Y-3403600D01*
X13309600Y-3454400D01*
X13360400Y-3505200D01*
X13309600Y-3657600D02*
X13411200Y-3759200D01*
X13411200Y-3657600D02*
X13309600Y-3759200D01*
X13360400Y-3759200D02*
X13411200Y-3708400D01*
X13360400Y-3657600D01*
X13309600Y-3708400D01*
X13360400Y-3759200D01*
X13309600Y-3911600D02*
X13411200Y-4013200D01*
X13411200Y-3911600D02*
X13309600Y-4013200D01*
X13360400Y-4013200D02*
X13411200Y-3962400D01*
X13360400Y-3911600D01*
X13309600Y-3962400D01*
X13360400Y-4013200D01*
X13309600Y-4610100D02*
X13411200Y-4711700D01*
X13411200Y-4610100D02*
X13309600Y-4711700D01*
X13360400Y-4711700D02*
X13411200Y-4660900D01*
X13360400Y-4610100D01*
X13309600Y-4660900D01*
X13360400Y-4711700D01*
X13309600Y-4864100D02*
X13411200Y-4965700D01*
X13411200Y-4864100D02*
X13309600Y-4965700D01*
X13360400Y-4965700D02*
X13411200Y-4914900D01*
X13360400Y-4864100D01*
X13309600Y-4914900D01*
X13360400Y-4965700D01*
X13309600Y-5118100D02*
X13411200Y-5219700D01*
X13411200Y-5118100D02*
X13309600Y-5219700D01*
X13360400Y-5219700D02*
X13411200Y-5168900D01*
X13360400Y-5118100D01*
X13309600Y-5168900D01*
X13360400Y-5219700D01*
X13309600Y-5372100D02*
X13411200Y-5473700D01*
X13411200Y-5372100D02*
X13309600Y-5473700D01*
X13360400Y-5473700D02*
X13411200Y-5422900D01*
X13360400Y-5372100D01*
X13309600Y-5422900D01*
X13360400Y-5473700D01*
X13309600Y-5626100D02*
X13411200Y-5727700D01*
X13411200Y-5626100D02*
X13309600Y-5727700D01*
X13360400Y-5727700D02*
X13411200Y-5676900D01*
X13360400Y-5626100D01*
X13309600Y-5676900D01*
X13360400Y-5727700D01*
X13309600Y-5880100D02*
X13411200Y-5981700D01*
X13411200Y-5880100D02*
X13309600Y-5981700D01*
X13360400Y-5981700D02*
X13411200Y-5930900D01*
X13360400Y-5880100D01*
X13309600Y-5930900D01*
X13360400Y-5981700D01*
X13309600Y-6134100D02*
X13411200Y-6235700D01*
X13411200Y-6134100D02*
X13309600Y-6235700D01*
X13360400Y-6235700D02*
X13411200Y-6184900D01*
X13360400Y-6134100D01*
X13309600Y-6184900D01*
X13360400Y-6235700D01*
X13309600Y-6388100D02*
X13411200Y-6489700D01*
X13411200Y-6388100D02*
X13309600Y-6489700D01*
X13360400Y-6489700D02*
X13411200Y-6438900D01*
X13360400Y-6388100D01*
X13309600Y-6438900D01*
X13360400Y-6489700D01*
X13309600Y-6642100D02*
X13411200Y-6743700D01*
X13411200Y-6642100D02*
X13309600Y-6743700D01*
X13360400Y-6743700D02*
X13411200Y-6692900D01*
X13360400Y-6642100D01*
X13309600Y-6692900D01*
X13360400Y-6743700D01*
X13309600Y-6896100D02*
X13411200Y-6997700D01*
X13411200Y-6896100D02*
X13309600Y-6997700D01*
X13360400Y-6997700D02*
X13411200Y-6946900D01*
X13360400Y-6896100D01*
X13309600Y-6946900D01*
X13360400Y-6997700D01*
X13309600Y-7150100D02*
X13411200Y-7251700D01*
X13411200Y-7150100D02*
X13309600Y-7251700D01*
X13360400Y-7251700D02*
X13411200Y-7200900D01*
X13360400Y-7150100D01*
X13309600Y-7200900D01*
X13360400Y-7251700D01*
X13309600Y-7404100D02*
X13411200Y-7505700D01*
X13411200Y-7404100D02*
X13309600Y-7505700D01*
X13360400Y-7505700D02*
X13411200Y-7454900D01*
X13360400Y-7404100D01*
X13309600Y-7454900D01*
X13360400Y-7505700D01*
X13309600Y-7658100D02*
X13411200Y-7759700D01*
X13411200Y-7658100D02*
X13309600Y-7759700D01*
X13360400Y-7759700D02*
X13411200Y-7708900D01*
X13360400Y-7658100D01*
X13309600Y-7708900D01*
X13360400Y-7759700D01*
X13309600Y-7912100D02*
X13411200Y-8013700D01*
X13411200Y-7912100D02*
X13309600Y-8013700D01*
X13360400Y-8013700D02*
X13411200Y-7962900D01*
X13360400Y-7912100D01*
X13309600Y-7962900D01*
X13360400Y-8013700D01*
X13309600Y-8166100D02*
X13411200Y-8267700D01*
X13411200Y-8166100D02*
X13309600Y-8267700D01*
X13360400Y-8267700D02*
X13411200Y-8216900D01*
X13360400Y-8166100D01*
X13309600Y-8216900D01*
X13360400Y-8267700D01*
X5608900Y-9236400D02*
X5608900Y-9366400D01*
X5543900Y-9301400D02*
X5673900Y-9301400D01*
X5673900Y-9301400D02*
G75*
G03X5673900Y-9301400I-65000J0D01*
G01*
X6309900Y-9236400D02*
X6309900Y-9366400D01*
X6244900Y-9301400D02*
X6374900Y-9301400D01*
X6374900Y-9301400D02*
G75*
G03X6374900Y-9301400I-65000J0D01*
G01*
X6948900Y-844400D02*
X6948900Y-974400D01*
X6883900Y-909400D02*
X7013900Y-909400D01*
X7013900Y-909400D02*
G75*
G03X7013900Y-909400I-65000J0D01*
G01*
X7649900Y-844400D02*
X7649900Y-974400D01*
X7584900Y-909400D02*
X7714900Y-909400D01*
X7714900Y-909400D02*
G75*
G03X7714900Y-909400I-65000J0D01*
G01*
D13*
X272329Y-10476614D02*
X272329Y-10176614D01*
X343757Y-10176614D01*
X386614Y-10190900D01*
X415186Y-10219472D01*
X429471Y-10248043D01*
X443757Y-10305186D01*
X443757Y-10348043D01*
X429471Y-10405186D01*
X415186Y-10433757D01*
X386614Y-10462329D01*
X343757Y-10476614D01*
X272329Y-10476614D01*
X572329Y-10476614D02*
X572329Y-10276614D01*
X572329Y-10333757D02*
X586614Y-10305186D01*
X600900Y-10290900D01*
X629471Y-10276614D01*
X658043Y-10276614D01*
X758043Y-10476614D02*
X758043Y-10276614D01*
X758043Y-10176614D02*
X743757Y-10190900D01*
X758043Y-10205186D01*
X772328Y-10190900D01*
X758043Y-10176614D01*
X758043Y-10205186D01*
X943757Y-10476614D02*
X915186Y-10462329D01*
X900900Y-10433757D01*
X900900Y-10176614D01*
X1100900Y-10476614D02*
X1072329Y-10462329D01*
X1058043Y-10433757D01*
X1058043Y-10176614D01*
X1443757Y-10476614D02*
X1443757Y-10176614D01*
X1543757Y-10390900D01*
X1643757Y-10176614D01*
X1643757Y-10476614D01*
X1915186Y-10476614D02*
X1915186Y-10319472D01*
X1900900Y-10290900D01*
X1872328Y-10276614D01*
X1815186Y-10276614D01*
X1786614Y-10290900D01*
X1915186Y-10462329D02*
X1886614Y-10476614D01*
X1815186Y-10476614D01*
X1786614Y-10462329D01*
X1772328Y-10433757D01*
X1772328Y-10405186D01*
X1786614Y-10376614D01*
X1815186Y-10362329D01*
X1886614Y-10362329D01*
X1915186Y-10348043D01*
X2058043Y-10276614D02*
X2058043Y-10576614D01*
X2058043Y-10290900D02*
X2086614Y-10276614D01*
X2143757Y-10276614D01*
X2172329Y-10290900D01*
X2186614Y-10305186D01*
X2200900Y-10333757D01*
X2200900Y-10419472D01*
X2186614Y-10448043D01*
X2172329Y-10462329D01*
X2143757Y-10476614D01*
X2086614Y-10476614D01*
X2058043Y-10462329D01*
X2329471Y-10448043D02*
X2343757Y-10462329D01*
X2329471Y-10476614D01*
X2315186Y-10462329D01*
X2329471Y-10448043D01*
X2329471Y-10476614D01*
X2329471Y-10290900D02*
X2343757Y-10305186D01*
X2329471Y-10319472D01*
X2315186Y-10305186D01*
X2329471Y-10290900D01*
X2329471Y-10319472D01*
X-59100Y-10940900D02*
X900Y-11000900D01*
X900Y-10940900D02*
X-59100Y-11000900D01*
X329471Y-10806614D02*
X358043Y-10806614D01*
X386614Y-10820900D01*
X400900Y-10835186D01*
X415186Y-10863757D01*
X429471Y-10920900D01*
X429471Y-10992329D01*
X415186Y-11049472D01*
X400900Y-11078043D01*
X386614Y-11092329D01*
X358043Y-11106614D01*
X329471Y-11106614D01*
X300900Y-11092329D01*
X286614Y-11078043D01*
X272329Y-11049472D01*
X258043Y-10992329D01*
X258043Y-10920900D01*
X272329Y-10863757D01*
X286614Y-10835186D01*
X300900Y-10820900D01*
X329471Y-10806614D01*
X558043Y-11078043D02*
X572329Y-11092329D01*
X558043Y-11106614D01*
X543757Y-11092329D01*
X558043Y-11078043D01*
X558043Y-11106614D01*
X829471Y-10806614D02*
X772328Y-10806614D01*
X743757Y-10820900D01*
X729471Y-10835186D01*
X700900Y-10878043D01*
X686614Y-10935186D01*
X686614Y-11049472D01*
X700900Y-11078043D01*
X715186Y-11092329D01*
X743757Y-11106614D01*
X800900Y-11106614D01*
X829471Y-11092329D01*
X843757Y-11078043D01*
X858043Y-11049472D01*
X858043Y-10978043D01*
X843757Y-10949472D01*
X829471Y-10935186D01*
X800900Y-10920900D01*
X743757Y-10920900D01*
X715186Y-10935186D01*
X700900Y-10949472D01*
X686614Y-10978043D01*
X1043757Y-10806614D02*
X1072329Y-10806614D01*
X1100900Y-10820900D01*
X1115186Y-10835186D01*
X1129471Y-10863757D01*
X1143757Y-10920900D01*
X1143757Y-10992329D01*
X1129471Y-11049472D01*
X1115186Y-11078043D01*
X1100900Y-11092329D01*
X1072329Y-11106614D01*
X1043757Y-11106614D01*
X1015186Y-11092329D01*
X1000900Y-11078043D01*
X986614Y-11049472D01*
X972328Y-10992329D01*
X972328Y-10920900D01*
X986614Y-10863757D01*
X1000900Y-10835186D01*
X1015186Y-10820900D01*
X1043757Y-10806614D01*
X1272329Y-11106614D02*
X1272329Y-10906614D01*
X1272329Y-10935186D02*
X1286614Y-10920900D01*
X1315186Y-10906614D01*
X1358043Y-10906614D01*
X1386614Y-10920900D01*
X1400900Y-10949472D01*
X1400900Y-11106614D01*
X1400900Y-10949472D02*
X1415186Y-10920900D01*
X1443757Y-10906614D01*
X1486614Y-10906614D01*
X1515186Y-10920900D01*
X1529471Y-10949472D01*
X1529471Y-11106614D01*
X1672328Y-11106614D02*
X1672328Y-10906614D01*
X1672328Y-10935186D02*
X1686614Y-10920900D01*
X1715186Y-10906614D01*
X1758043Y-10906614D01*
X1786614Y-10920900D01*
X1800900Y-10949472D01*
X1800900Y-11106614D01*
X1800900Y-10949472D02*
X1815186Y-10920900D01*
X1843757Y-10906614D01*
X1886614Y-10906614D01*
X1915186Y-10920900D01*
X1929471Y-10949472D01*
X1929471Y-11106614D01*
X2515186Y-10792329D02*
X2258043Y-11178043D01*
X2900900Y-10806614D02*
X2929471Y-10806614D01*
X2958043Y-10820900D01*
X2972328Y-10835186D01*
X2986614Y-10863757D01*
X3000900Y-10920900D01*
X3000900Y-10992329D01*
X2986614Y-11049472D01*
X2972328Y-11078043D01*
X2958043Y-11092329D01*
X2929471Y-11106614D01*
X2900900Y-11106614D01*
X2872328Y-11092329D01*
X2858043Y-11078043D01*
X2843757Y-11049472D01*
X2829471Y-10992329D01*
X2829471Y-10920900D01*
X2843757Y-10863757D01*
X2858043Y-10835186D01*
X2872328Y-10820900D01*
X2900900Y-10806614D01*
X3129471Y-11078043D02*
X3143757Y-11092329D01*
X3129471Y-11106614D01*
X3115186Y-11092329D01*
X3129471Y-11078043D01*
X3129471Y-11106614D01*
X3329471Y-10806614D02*
X3358043Y-10806614D01*
X3386614Y-10820900D01*
X3400900Y-10835186D01*
X3415185Y-10863757D01*
X3429471Y-10920900D01*
X3429471Y-10992329D01*
X3415185Y-11049472D01*
X3400900Y-11078043D01*
X3386614Y-11092329D01*
X3358043Y-11106614D01*
X3329471Y-11106614D01*
X3300900Y-11092329D01*
X3286614Y-11078043D01*
X3272328Y-11049472D01*
X3258043Y-10992329D01*
X3258043Y-10920900D01*
X3272328Y-10863757D01*
X3286614Y-10835186D01*
X3300900Y-10820900D01*
X3329471Y-10806614D01*
X3543757Y-10835186D02*
X3558043Y-10820900D01*
X3586614Y-10806614D01*
X3658043Y-10806614D01*
X3686614Y-10820900D01*
X3700900Y-10835186D01*
X3715185Y-10863757D01*
X3715185Y-10892329D01*
X3700900Y-10935186D01*
X3529471Y-11106614D01*
X3715185Y-11106614D01*
X3972328Y-10906614D02*
X3972328Y-11106614D01*
X3900900Y-10792329D02*
X3829471Y-11006614D01*
X4015185Y-11006614D01*
X4115186Y-10806614D02*
X4115186Y-10863757D01*
X4229471Y-10806614D02*
X4229471Y-10863757D01*
X4672328Y-11220900D02*
X4658043Y-11206614D01*
X4629471Y-11163757D01*
X4615186Y-11135186D01*
X4600900Y-11092329D01*
X4586614Y-11020900D01*
X4586614Y-10963757D01*
X4600900Y-10892329D01*
X4615186Y-10849472D01*
X4629471Y-10820900D01*
X4658043Y-10778043D01*
X4672328Y-10763757D01*
X4943757Y-11106614D02*
X4772328Y-11106614D01*
X4858043Y-11106614D02*
X4858043Y-10806614D01*
X4829471Y-10849472D01*
X4800900Y-10878043D01*
X4772328Y-10892329D01*
X5200900Y-10806614D02*
X5143757Y-10806614D01*
X5115186Y-10820900D01*
X5100900Y-10835186D01*
X5072328Y-10878043D01*
X5058043Y-10935186D01*
X5058043Y-11049472D01*
X5072328Y-11078043D01*
X5086614Y-11092329D01*
X5115186Y-11106614D01*
X5172328Y-11106614D01*
X5200900Y-11092329D01*
X5215186Y-11078043D01*
X5229471Y-11049472D01*
X5229471Y-10978043D01*
X5215186Y-10949472D01*
X5200900Y-10935186D01*
X5172328Y-10920900D01*
X5115186Y-10920900D01*
X5086614Y-10935186D01*
X5072328Y-10949472D01*
X5058043Y-10978043D01*
X5586614Y-11106614D02*
X5586614Y-10806614D01*
X5715185Y-11106614D02*
X5715185Y-10949472D01*
X5700900Y-10920900D01*
X5672328Y-10906614D01*
X5629471Y-10906614D01*
X5600900Y-10920900D01*
X5586614Y-10935186D01*
X5900900Y-11106614D02*
X5872328Y-11092329D01*
X5858043Y-11078043D01*
X5843757Y-11049472D01*
X5843757Y-10963757D01*
X5858043Y-10935186D01*
X5872328Y-10920900D01*
X5900900Y-10906614D01*
X5943757Y-10906614D01*
X5972328Y-10920900D01*
X5986614Y-10935186D01*
X6000900Y-10963757D01*
X6000900Y-11049472D01*
X5986614Y-11078043D01*
X5972328Y-11092329D01*
X5943757Y-11106614D01*
X5900900Y-11106614D01*
X6172328Y-11106614D02*
X6143757Y-11092329D01*
X6129471Y-11063757D01*
X6129471Y-10806614D01*
X6400900Y-11092329D02*
X6372328Y-11106614D01*
X6315186Y-11106614D01*
X6286614Y-11092329D01*
X6272328Y-11063757D01*
X6272328Y-10949472D01*
X6286614Y-10920900D01*
X6315186Y-10906614D01*
X6372328Y-10906614D01*
X6400900Y-10920900D01*
X6415186Y-10949472D01*
X6415186Y-10978043D01*
X6272328Y-11006614D01*
X6529471Y-11092329D02*
X6558043Y-11106614D01*
X6615186Y-11106614D01*
X6643757Y-11092329D01*
X6658043Y-11063757D01*
X6658043Y-11049472D01*
X6643757Y-11020900D01*
X6615186Y-11006614D01*
X6572328Y-11006614D01*
X6543757Y-10992329D01*
X6529471Y-10963757D01*
X6529471Y-10949472D01*
X6543757Y-10920900D01*
X6572328Y-10906614D01*
X6615186Y-10906614D01*
X6643757Y-10920900D01*
X6758043Y-11220900D02*
X6772328Y-11206614D01*
X6800900Y-11163757D01*
X6815186Y-11135186D01*
X6829471Y-11092329D01*
X6843757Y-11020900D01*
X6843757Y-10963757D01*
X6829471Y-10892329D01*
X6815186Y-10849472D01*
X6800900Y-10820900D01*
X6772328Y-10778043D01*
X6758043Y-10763757D01*
X900Y-11366900D02*
G75*
G03X900Y-11366900I-31750J0D01*
G01*
X329471Y-11202614D02*
X358043Y-11202614D01*
X386614Y-11216900D01*
X400900Y-11231186D01*
X415186Y-11259757D01*
X429471Y-11316900D01*
X429471Y-11388329D01*
X415186Y-11445471D01*
X400900Y-11474043D01*
X386614Y-11488329D01*
X358043Y-11502614D01*
X329471Y-11502614D01*
X300900Y-11488329D01*
X286614Y-11474043D01*
X272329Y-11445471D01*
X258043Y-11388329D01*
X258043Y-11316900D01*
X272329Y-11259757D01*
X286614Y-11231186D01*
X300900Y-11216900D01*
X329471Y-11202614D01*
X558043Y-11474043D02*
X572329Y-11488329D01*
X558043Y-11502614D01*
X543757Y-11488329D01*
X558043Y-11474043D01*
X558043Y-11502614D01*
X829471Y-11202614D02*
X772328Y-11202614D01*
X743757Y-11216900D01*
X729471Y-11231186D01*
X700900Y-11274043D01*
X686614Y-11331186D01*
X686614Y-11445471D01*
X700900Y-11474043D01*
X715186Y-11488329D01*
X743757Y-11502614D01*
X800900Y-11502614D01*
X829471Y-11488329D01*
X843757Y-11474043D01*
X858043Y-11445471D01*
X858043Y-11374043D01*
X843757Y-11345471D01*
X829471Y-11331186D01*
X800900Y-11316900D01*
X743757Y-11316900D01*
X715186Y-11331186D01*
X700900Y-11345471D01*
X686614Y-11374043D01*
X1115186Y-11302614D02*
X1115186Y-11502614D01*
X1043757Y-11188329D02*
X972328Y-11402614D01*
X1158043Y-11402614D01*
X1272329Y-11502614D02*
X1272329Y-11302614D01*
X1272329Y-11331186D02*
X1286614Y-11316900D01*
X1315186Y-11302614D01*
X1358043Y-11302614D01*
X1386614Y-11316900D01*
X1400900Y-11345471D01*
X1400900Y-11502614D01*
X1400900Y-11345471D02*
X1415186Y-11316900D01*
X1443757Y-11302614D01*
X1486614Y-11302614D01*
X1515186Y-11316900D01*
X1529471Y-11345471D01*
X1529471Y-11502614D01*
X1672328Y-11502614D02*
X1672328Y-11302614D01*
X1672328Y-11331186D02*
X1686614Y-11316900D01*
X1715186Y-11302614D01*
X1758043Y-11302614D01*
X1786614Y-11316900D01*
X1800900Y-11345471D01*
X1800900Y-11502614D01*
X1800900Y-11345471D02*
X1815186Y-11316900D01*
X1843757Y-11302614D01*
X1886614Y-11302614D01*
X1915186Y-11316900D01*
X1929471Y-11345471D01*
X1929471Y-11502614D01*
X2515186Y-11188329D02*
X2258043Y-11574043D01*
X2900900Y-11202614D02*
X2929471Y-11202614D01*
X2958043Y-11216900D01*
X2972328Y-11231186D01*
X2986614Y-11259757D01*
X3000900Y-11316900D01*
X3000900Y-11388329D01*
X2986614Y-11445471D01*
X2972328Y-11474043D01*
X2958043Y-11488329D01*
X2929471Y-11502614D01*
X2900900Y-11502614D01*
X2872328Y-11488329D01*
X2858043Y-11474043D01*
X2843757Y-11445471D01*
X2829471Y-11388329D01*
X2829471Y-11316900D01*
X2843757Y-11259757D01*
X2858043Y-11231186D01*
X2872328Y-11216900D01*
X2900900Y-11202614D01*
X3129471Y-11474043D02*
X3143757Y-11488329D01*
X3129471Y-11502614D01*
X3115186Y-11488329D01*
X3129471Y-11474043D01*
X3129471Y-11502614D01*
X3329471Y-11202614D02*
X3358043Y-11202614D01*
X3386614Y-11216900D01*
X3400900Y-11231186D01*
X3415185Y-11259757D01*
X3429471Y-11316900D01*
X3429471Y-11388329D01*
X3415185Y-11445471D01*
X3400900Y-11474043D01*
X3386614Y-11488329D01*
X3358043Y-11502614D01*
X3329471Y-11502614D01*
X3300900Y-11488329D01*
X3286614Y-11474043D01*
X3272328Y-11445471D01*
X3258043Y-11388329D01*
X3258043Y-11316900D01*
X3272328Y-11259757D01*
X3286614Y-11231186D01*
X3300900Y-11216900D01*
X3329471Y-11202614D01*
X3543757Y-11231186D02*
X3558043Y-11216900D01*
X3586614Y-11202614D01*
X3658043Y-11202614D01*
X3686614Y-11216900D01*
X3700900Y-11231186D01*
X3715185Y-11259757D01*
X3715185Y-11288329D01*
X3700900Y-11331186D01*
X3529471Y-11502614D01*
X3715185Y-11502614D01*
X3986614Y-11202614D02*
X3843757Y-11202614D01*
X3829471Y-11345471D01*
X3843757Y-11331186D01*
X3872328Y-11316900D01*
X3943757Y-11316900D01*
X3972328Y-11331186D01*
X3986614Y-11345471D01*
X4000900Y-11374043D01*
X4000900Y-11445471D01*
X3986614Y-11474043D01*
X3972328Y-11488329D01*
X3943757Y-11502614D01*
X3872328Y-11502614D01*
X3843757Y-11488329D01*
X3829471Y-11474043D01*
X4115186Y-11202614D02*
X4115186Y-11259757D01*
X4229471Y-11202614D02*
X4229471Y-11259757D01*
X4672328Y-11616900D02*
X4658043Y-11602614D01*
X4629471Y-11559757D01*
X4615186Y-11531186D01*
X4600900Y-11488329D01*
X4586614Y-11416900D01*
X4586614Y-11359757D01*
X4600900Y-11288329D01*
X4615186Y-11245471D01*
X4629471Y-11216900D01*
X4658043Y-11174043D01*
X4672328Y-11159757D01*
X4829471Y-11331186D02*
X4800900Y-11316900D01*
X4786614Y-11302614D01*
X4772328Y-11274043D01*
X4772328Y-11259757D01*
X4786614Y-11231186D01*
X4800900Y-11216900D01*
X4829471Y-11202614D01*
X4886614Y-11202614D01*
X4915186Y-11216900D01*
X4929471Y-11231186D01*
X4943757Y-11259757D01*
X4943757Y-11274043D01*
X4929471Y-11302614D01*
X4915186Y-11316900D01*
X4886614Y-11331186D01*
X4829471Y-11331186D01*
X4800900Y-11345471D01*
X4786614Y-11359757D01*
X4772328Y-11388329D01*
X4772328Y-11445471D01*
X4786614Y-11474043D01*
X4800900Y-11488329D01*
X4829471Y-11502614D01*
X4886614Y-11502614D01*
X4915186Y-11488329D01*
X4929471Y-11474043D01*
X4943757Y-11445471D01*
X4943757Y-11388329D01*
X4929471Y-11359757D01*
X4915186Y-11345471D01*
X4886614Y-11331186D01*
X5200900Y-11202614D02*
X5143757Y-11202614D01*
X5115186Y-11216900D01*
X5100900Y-11231186D01*
X5072328Y-11274043D01*
X5058043Y-11331186D01*
X5058043Y-11445471D01*
X5072328Y-11474043D01*
X5086614Y-11488329D01*
X5115186Y-11502614D01*
X5172328Y-11502614D01*
X5200900Y-11488329D01*
X5215186Y-11474043D01*
X5229471Y-11445471D01*
X5229471Y-11374043D01*
X5215186Y-11345471D01*
X5200900Y-11331186D01*
X5172328Y-11316900D01*
X5115186Y-11316900D01*
X5086614Y-11331186D01*
X5072328Y-11345471D01*
X5058043Y-11374043D01*
X5586614Y-11502614D02*
X5586614Y-11202614D01*
X5715185Y-11502614D02*
X5715185Y-11345471D01*
X5700900Y-11316900D01*
X5672328Y-11302614D01*
X5629471Y-11302614D01*
X5600900Y-11316900D01*
X5586614Y-11331186D01*
X5900900Y-11502614D02*
X5872328Y-11488329D01*
X5858043Y-11474043D01*
X5843757Y-11445471D01*
X5843757Y-11359757D01*
X5858043Y-11331186D01*
X5872328Y-11316900D01*
X5900900Y-11302614D01*
X5943757Y-11302614D01*
X5972328Y-11316900D01*
X5986614Y-11331186D01*
X6000900Y-11359757D01*
X6000900Y-11445471D01*
X5986614Y-11474043D01*
X5972328Y-11488329D01*
X5943757Y-11502614D01*
X5900900Y-11502614D01*
X6172328Y-11502614D02*
X6143757Y-11488329D01*
X6129471Y-11459757D01*
X6129471Y-11202614D01*
X6400900Y-11488329D02*
X6372328Y-11502614D01*
X6315186Y-11502614D01*
X6286614Y-11488329D01*
X6272328Y-11459757D01*
X6272328Y-11345471D01*
X6286614Y-11316900D01*
X6315186Y-11302614D01*
X6372328Y-11302614D01*
X6400900Y-11316900D01*
X6415186Y-11345471D01*
X6415186Y-11374043D01*
X6272328Y-11402614D01*
X6529471Y-11488329D02*
X6558043Y-11502614D01*
X6615186Y-11502614D01*
X6643757Y-11488329D01*
X6658043Y-11459757D01*
X6658043Y-11445471D01*
X6643757Y-11416900D01*
X6615186Y-11402614D01*
X6572328Y-11402614D01*
X6543757Y-11388329D01*
X6529471Y-11359757D01*
X6529471Y-11345471D01*
X6543757Y-11316900D01*
X6572328Y-11302614D01*
X6615186Y-11302614D01*
X6643757Y-11316900D01*
X6758043Y-11616900D02*
X6772328Y-11602614D01*
X6800900Y-11559757D01*
X6815186Y-11531186D01*
X6829471Y-11488329D01*
X6843757Y-11416900D01*
X6843757Y-11359757D01*
X6829471Y-11288329D01*
X6815186Y-11245471D01*
X6800900Y-11216900D01*
X6772328Y-11174043D01*
X6758043Y-11159757D01*
X-39100Y-11722900D02*
X-39100Y-11802900D01*
X-79100Y-11762900D02*
X900Y-11762900D01*
X329471Y-11598614D02*
X358043Y-11598614D01*
X386614Y-11612900D01*
X400900Y-11627186D01*
X415186Y-11655757D01*
X429471Y-11712900D01*
X429471Y-11784329D01*
X415186Y-11841471D01*
X400900Y-11870043D01*
X386614Y-11884329D01*
X358043Y-11898614D01*
X329471Y-11898614D01*
X300900Y-11884329D01*
X286614Y-11870043D01*
X272329Y-11841471D01*
X258043Y-11784329D01*
X258043Y-11712900D01*
X272329Y-11655757D01*
X286614Y-11627186D01*
X300900Y-11612900D01*
X329471Y-11598614D01*
X558043Y-11870043D02*
X572329Y-11884329D01*
X558043Y-11898614D01*
X543757Y-11884329D01*
X558043Y-11870043D01*
X558043Y-11898614D01*
X743757Y-11727186D02*
X715186Y-11712900D01*
X700900Y-11698614D01*
X686614Y-11670043D01*
X686614Y-11655757D01*
X700900Y-11627186D01*
X715186Y-11612900D01*
X743757Y-11598614D01*
X800900Y-11598614D01*
X829471Y-11612900D01*
X843757Y-11627186D01*
X858043Y-11655757D01*
X858043Y-11670043D01*
X843757Y-11698614D01*
X829471Y-11712900D01*
X800900Y-11727186D01*
X743757Y-11727186D01*
X715186Y-11741471D01*
X700900Y-11755757D01*
X686614Y-11784329D01*
X686614Y-11841471D01*
X700900Y-11870043D01*
X715186Y-11884329D01*
X743757Y-11898614D01*
X800900Y-11898614D01*
X829471Y-11884329D01*
X843757Y-11870043D01*
X858043Y-11841471D01*
X858043Y-11784329D01*
X843757Y-11755757D01*
X829471Y-11741471D01*
X800900Y-11727186D01*
X1043757Y-11598614D02*
X1072329Y-11598614D01*
X1100900Y-11612900D01*
X1115186Y-11627186D01*
X1129471Y-11655757D01*
X1143757Y-11712900D01*
X1143757Y-11784329D01*
X1129471Y-11841471D01*
X1115186Y-11870043D01*
X1100900Y-11884329D01*
X1072329Y-11898614D01*
X1043757Y-11898614D01*
X1015186Y-11884329D01*
X1000900Y-11870043D01*
X986614Y-11841471D01*
X972328Y-11784329D01*
X972328Y-11712900D01*
X986614Y-11655757D01*
X1000900Y-11627186D01*
X1015186Y-11612900D01*
X1043757Y-11598614D01*
X1272329Y-11898614D02*
X1272329Y-11698614D01*
X1272329Y-11727186D02*
X1286614Y-11712900D01*
X1315186Y-11698614D01*
X1358043Y-11698614D01*
X1386614Y-11712900D01*
X1400900Y-11741471D01*
X1400900Y-11898614D01*
X1400900Y-11741471D02*
X1415186Y-11712900D01*
X1443757Y-11698614D01*
X1486614Y-11698614D01*
X1515186Y-11712900D01*
X1529471Y-11741471D01*
X1529471Y-11898614D01*
X1672328Y-11898614D02*
X1672328Y-11698614D01*
X1672328Y-11727186D02*
X1686614Y-11712900D01*
X1715186Y-11698614D01*
X1758043Y-11698614D01*
X1786614Y-11712900D01*
X1800900Y-11741471D01*
X1800900Y-11898614D01*
X1800900Y-11741471D02*
X1815186Y-11712900D01*
X1843757Y-11698614D01*
X1886614Y-11698614D01*
X1915186Y-11712900D01*
X1929471Y-11741471D01*
X1929471Y-11898614D01*
X2515186Y-11584329D02*
X2258043Y-11970043D01*
X2900900Y-11598614D02*
X2929471Y-11598614D01*
X2958043Y-11612900D01*
X2972328Y-11627186D01*
X2986614Y-11655757D01*
X3000900Y-11712900D01*
X3000900Y-11784329D01*
X2986614Y-11841471D01*
X2972328Y-11870043D01*
X2958043Y-11884329D01*
X2929471Y-11898614D01*
X2900900Y-11898614D01*
X2872328Y-11884329D01*
X2858043Y-11870043D01*
X2843757Y-11841471D01*
X2829471Y-11784329D01*
X2829471Y-11712900D01*
X2843757Y-11655757D01*
X2858043Y-11627186D01*
X2872328Y-11612900D01*
X2900900Y-11598614D01*
X3129471Y-11870043D02*
X3143757Y-11884329D01*
X3129471Y-11898614D01*
X3115186Y-11884329D01*
X3129471Y-11870043D01*
X3129471Y-11898614D01*
X3329471Y-11598614D02*
X3358043Y-11598614D01*
X3386614Y-11612900D01*
X3400900Y-11627186D01*
X3415185Y-11655757D01*
X3429471Y-11712900D01*
X3429471Y-11784329D01*
X3415185Y-11841471D01*
X3400900Y-11870043D01*
X3386614Y-11884329D01*
X3358043Y-11898614D01*
X3329471Y-11898614D01*
X3300900Y-11884329D01*
X3286614Y-11870043D01*
X3272328Y-11841471D01*
X3258043Y-11784329D01*
X3258043Y-11712900D01*
X3272328Y-11655757D01*
X3286614Y-11627186D01*
X3300900Y-11612900D01*
X3329471Y-11598614D01*
X3529471Y-11598614D02*
X3715185Y-11598614D01*
X3615185Y-11712900D01*
X3658043Y-11712900D01*
X3686614Y-11727186D01*
X3700900Y-11741471D01*
X3715185Y-11770043D01*
X3715185Y-11841471D01*
X3700900Y-11870043D01*
X3686614Y-11884329D01*
X3658043Y-11898614D01*
X3572328Y-11898614D01*
X3543757Y-11884329D01*
X3529471Y-11870043D01*
X4000900Y-11898614D02*
X3829471Y-11898614D01*
X3915185Y-11898614D02*
X3915185Y-11598614D01*
X3886614Y-11641471D01*
X3858043Y-11670043D01*
X3829471Y-11684329D01*
X4115186Y-11598614D02*
X4115186Y-11655757D01*
X4229471Y-11598614D02*
X4229471Y-11655757D01*
X4672328Y-12012900D02*
X4658043Y-11998614D01*
X4629471Y-11955757D01*
X4615186Y-11927186D01*
X4600900Y-11884329D01*
X4586614Y-11812900D01*
X4586614Y-11755757D01*
X4600900Y-11684329D01*
X4615186Y-11641471D01*
X4629471Y-11612900D01*
X4658043Y-11570043D01*
X4672328Y-11555757D01*
X4943757Y-11898614D02*
X4772328Y-11898614D01*
X4858043Y-11898614D02*
X4858043Y-11598614D01*
X4829471Y-11641471D01*
X4800900Y-11670043D01*
X4772328Y-11684329D01*
X5229471Y-11898614D02*
X5058043Y-11898614D01*
X5143757Y-11898614D02*
X5143757Y-11598614D01*
X5115186Y-11641471D01*
X5086614Y-11670043D01*
X5058043Y-11684329D01*
X5343757Y-11627186D02*
X5358043Y-11612900D01*
X5386614Y-11598614D01*
X5458043Y-11598614D01*
X5486614Y-11612900D01*
X5500900Y-11627186D01*
X5515186Y-11655757D01*
X5515186Y-11684329D01*
X5500900Y-11727186D01*
X5329471Y-11898614D01*
X5515186Y-11898614D01*
X5872328Y-11898614D02*
X5872328Y-11598614D01*
X6000900Y-11898614D02*
X6000900Y-11741471D01*
X5986614Y-11712900D01*
X5958043Y-11698614D01*
X5915185Y-11698614D01*
X5886614Y-11712900D01*
X5872328Y-11727186D01*
X6186614Y-11898614D02*
X6158043Y-11884329D01*
X6143757Y-11870043D01*
X6129471Y-11841471D01*
X6129471Y-11755757D01*
X6143757Y-11727186D01*
X6158043Y-11712900D01*
X6186614Y-11698614D01*
X6229471Y-11698614D01*
X6258043Y-11712900D01*
X6272328Y-11727186D01*
X6286614Y-11755757D01*
X6286614Y-11841471D01*
X6272328Y-11870043D01*
X6258043Y-11884329D01*
X6229471Y-11898614D01*
X6186614Y-11898614D01*
X6458043Y-11898614D02*
X6429471Y-11884329D01*
X6415186Y-11855757D01*
X6415186Y-11598614D01*
X6686614Y-11884329D02*
X6658043Y-11898614D01*
X6600900Y-11898614D01*
X6572328Y-11884329D01*
X6558043Y-11855757D01*
X6558043Y-11741471D01*
X6572328Y-11712900D01*
X6600900Y-11698614D01*
X6658043Y-11698614D01*
X6686614Y-11712900D01*
X6700900Y-11741471D01*
X6700900Y-11770043D01*
X6558043Y-11798614D01*
X6815186Y-11884329D02*
X6843757Y-11898614D01*
X6900900Y-11898614D01*
X6929471Y-11884329D01*
X6943757Y-11855757D01*
X6943757Y-11841471D01*
X6929471Y-11812900D01*
X6900900Y-11798614D01*
X6858043Y-11798614D01*
X6829471Y-11784329D01*
X6815186Y-11755757D01*
X6815186Y-11741471D01*
X6829471Y-11712900D01*
X6858043Y-11698614D01*
X6900900Y-11698614D01*
X6929471Y-11712900D01*
X7043757Y-12012900D02*
X7058043Y-11998614D01*
X7086614Y-11955757D01*
X7100900Y-11927186D01*
X7115186Y-11884329D01*
X7129471Y-11812900D01*
X7129471Y-11755757D01*
X7115186Y-11684329D01*
X7100900Y-11641471D01*
X7086614Y-11612900D01*
X7058043Y-11570043D01*
X7043757Y-11555757D01*
X-10817Y-12187188D02*
X-10817Y-12130612D01*
X-67393Y-12130612D01*
X-67393Y-12187188D01*
X-10817Y-12187188D01*
X329471Y-11994614D02*
X358043Y-11994614D01*
X386614Y-12008900D01*
X400900Y-12023186D01*
X415186Y-12051757D01*
X429471Y-12108900D01*
X429471Y-12180329D01*
X415186Y-12237471D01*
X400900Y-12266043D01*
X386614Y-12280329D01*
X358043Y-12294614D01*
X329471Y-12294614D01*
X300900Y-12280329D01*
X286614Y-12266043D01*
X272329Y-12237471D01*
X258043Y-12180329D01*
X258043Y-12108900D01*
X272329Y-12051757D01*
X286614Y-12023186D01*
X300900Y-12008900D01*
X329471Y-11994614D01*
X558043Y-12266043D02*
X572329Y-12280329D01*
X558043Y-12294614D01*
X543757Y-12280329D01*
X558043Y-12266043D01*
X558043Y-12294614D01*
X743757Y-12123186D02*
X715186Y-12108900D01*
X700900Y-12094614D01*
X686614Y-12066043D01*
X686614Y-12051757D01*
X700900Y-12023186D01*
X715186Y-12008900D01*
X743757Y-11994614D01*
X800900Y-11994614D01*
X829471Y-12008900D01*
X843757Y-12023186D01*
X858043Y-12051757D01*
X858043Y-12066043D01*
X843757Y-12094614D01*
X829471Y-12108900D01*
X800900Y-12123186D01*
X743757Y-12123186D01*
X715186Y-12137471D01*
X700900Y-12151757D01*
X686614Y-12180329D01*
X686614Y-12237471D01*
X700900Y-12266043D01*
X715186Y-12280329D01*
X743757Y-12294614D01*
X800900Y-12294614D01*
X829471Y-12280329D01*
X843757Y-12266043D01*
X858043Y-12237471D01*
X858043Y-12180329D01*
X843757Y-12151757D01*
X829471Y-12137471D01*
X800900Y-12123186D01*
X1043757Y-11994614D02*
X1072329Y-11994614D01*
X1100900Y-12008900D01*
X1115186Y-12023186D01*
X1129471Y-12051757D01*
X1143757Y-12108900D01*
X1143757Y-12180329D01*
X1129471Y-12237471D01*
X1115186Y-12266043D01*
X1100900Y-12280329D01*
X1072329Y-12294614D01*
X1043757Y-12294614D01*
X1015186Y-12280329D01*
X1000900Y-12266043D01*
X986614Y-12237471D01*
X972328Y-12180329D01*
X972328Y-12108900D01*
X986614Y-12051757D01*
X1000900Y-12023186D01*
X1015186Y-12008900D01*
X1043757Y-11994614D01*
X1272329Y-12294614D02*
X1272329Y-12094614D01*
X1272329Y-12123186D02*
X1286614Y-12108900D01*
X1315186Y-12094614D01*
X1358043Y-12094614D01*
X1386614Y-12108900D01*
X1400900Y-12137471D01*
X1400900Y-12294614D01*
X1400900Y-12137471D02*
X1415186Y-12108900D01*
X1443757Y-12094614D01*
X1486614Y-12094614D01*
X1515186Y-12108900D01*
X1529471Y-12137471D01*
X1529471Y-12294614D01*
X1672328Y-12294614D02*
X1672328Y-12094614D01*
X1672328Y-12123186D02*
X1686614Y-12108900D01*
X1715186Y-12094614D01*
X1758043Y-12094614D01*
X1786614Y-12108900D01*
X1800900Y-12137471D01*
X1800900Y-12294614D01*
X1800900Y-12137471D02*
X1815186Y-12108900D01*
X1843757Y-12094614D01*
X1886614Y-12094614D01*
X1915186Y-12108900D01*
X1929471Y-12137471D01*
X1929471Y-12294614D01*
X2515186Y-11980329D02*
X2258043Y-12366043D01*
X2900900Y-11994614D02*
X2929471Y-11994614D01*
X2958043Y-12008900D01*
X2972328Y-12023186D01*
X2986614Y-12051757D01*
X3000900Y-12108900D01*
X3000900Y-12180329D01*
X2986614Y-12237471D01*
X2972328Y-12266043D01*
X2958043Y-12280329D01*
X2929471Y-12294614D01*
X2900900Y-12294614D01*
X2872328Y-12280329D01*
X2858043Y-12266043D01*
X2843757Y-12237471D01*
X2829471Y-12180329D01*
X2829471Y-12108900D01*
X2843757Y-12051757D01*
X2858043Y-12023186D01*
X2872328Y-12008900D01*
X2900900Y-11994614D01*
X3129471Y-12266043D02*
X3143757Y-12280329D01*
X3129471Y-12294614D01*
X3115186Y-12280329D01*
X3129471Y-12266043D01*
X3129471Y-12294614D01*
X3329471Y-11994614D02*
X3358043Y-11994614D01*
X3386614Y-12008900D01*
X3400900Y-12023186D01*
X3415185Y-12051757D01*
X3429471Y-12108900D01*
X3429471Y-12180329D01*
X3415185Y-12237471D01*
X3400900Y-12266043D01*
X3386614Y-12280329D01*
X3358043Y-12294614D01*
X3329471Y-12294614D01*
X3300900Y-12280329D01*
X3286614Y-12266043D01*
X3272328Y-12237471D01*
X3258043Y-12180329D01*
X3258043Y-12108900D01*
X3272328Y-12051757D01*
X3286614Y-12023186D01*
X3300900Y-12008900D01*
X3329471Y-11994614D01*
X3529471Y-11994614D02*
X3715185Y-11994614D01*
X3615185Y-12108900D01*
X3658043Y-12108900D01*
X3686614Y-12123186D01*
X3700900Y-12137471D01*
X3715185Y-12166043D01*
X3715185Y-12237471D01*
X3700900Y-12266043D01*
X3686614Y-12280329D01*
X3658043Y-12294614D01*
X3572328Y-12294614D01*
X3543757Y-12280329D01*
X3529471Y-12266043D01*
X3829471Y-12023186D02*
X3843757Y-12008900D01*
X3872328Y-11994614D01*
X3943757Y-11994614D01*
X3972328Y-12008900D01*
X3986614Y-12023186D01*
X4000900Y-12051757D01*
X4000900Y-12080329D01*
X3986614Y-12123186D01*
X3815185Y-12294614D01*
X4000900Y-12294614D01*
X4115186Y-11994614D02*
X4115186Y-12051757D01*
X4229471Y-11994614D02*
X4229471Y-12051757D01*
X4672328Y-12408900D02*
X4658043Y-12394614D01*
X4629471Y-12351757D01*
X4615186Y-12323186D01*
X4600900Y-12280329D01*
X4586614Y-12208900D01*
X4586614Y-12151757D01*
X4600900Y-12080329D01*
X4615186Y-12037471D01*
X4629471Y-12008900D01*
X4658043Y-11966043D01*
X4672328Y-11951757D01*
X4772328Y-12023186D02*
X4786614Y-12008900D01*
X4815186Y-11994614D01*
X4886614Y-11994614D01*
X4915186Y-12008900D01*
X4929471Y-12023186D01*
X4943757Y-12051757D01*
X4943757Y-12080329D01*
X4929471Y-12123186D01*
X4758043Y-12294614D01*
X4943757Y-12294614D01*
X5300900Y-12294614D02*
X5300900Y-11994614D01*
X5429471Y-12294614D02*
X5429471Y-12137471D01*
X5415186Y-12108900D01*
X5386614Y-12094614D01*
X5343757Y-12094614D01*
X5315186Y-12108900D01*
X5300900Y-12123186D01*
X5615185Y-12294614D02*
X5586614Y-12280329D01*
X5572328Y-12266043D01*
X5558043Y-12237471D01*
X5558043Y-12151757D01*
X5572328Y-12123186D01*
X5586614Y-12108900D01*
X5615185Y-12094614D01*
X5658043Y-12094614D01*
X5686614Y-12108900D01*
X5700900Y-12123186D01*
X5715185Y-12151757D01*
X5715185Y-12237471D01*
X5700900Y-12266043D01*
X5686614Y-12280329D01*
X5658043Y-12294614D01*
X5615185Y-12294614D01*
X5886614Y-12294614D02*
X5858043Y-12280329D01*
X5843757Y-12251757D01*
X5843757Y-11994614D01*
X6115186Y-12280329D02*
X6086614Y-12294614D01*
X6029471Y-12294614D01*
X6000900Y-12280329D01*
X5986614Y-12251757D01*
X5986614Y-12137471D01*
X6000900Y-12108900D01*
X6029471Y-12094614D01*
X6086614Y-12094614D01*
X6115186Y-12108900D01*
X6129471Y-12137471D01*
X6129471Y-12166043D01*
X5986614Y-12194614D01*
X6243757Y-12280329D02*
X6272328Y-12294614D01*
X6329471Y-12294614D01*
X6358043Y-12280329D01*
X6372328Y-12251757D01*
X6372328Y-12237471D01*
X6358043Y-12208900D01*
X6329471Y-12194614D01*
X6286614Y-12194614D01*
X6258043Y-12180329D01*
X6243757Y-12151757D01*
X6243757Y-12137471D01*
X6258043Y-12108900D01*
X6286614Y-12094614D01*
X6329471Y-12094614D01*
X6358043Y-12108900D01*
X6472328Y-12408900D02*
X6486614Y-12394614D01*
X6515186Y-12351757D01*
X6529471Y-12323186D01*
X6543757Y-12280329D01*
X6558043Y-12208900D01*
X6558043Y-12151757D01*
X6543757Y-12080329D01*
X6529471Y-12037471D01*
X6515186Y-12008900D01*
X6486614Y-11966043D01*
X6472328Y-11951757D01*
X-39740Y-12595540D02*
X900Y-12554900D01*
X-39740Y-12514260D01*
X-80380Y-12554900D01*
X-39740Y-12595540D01*
X329471Y-12390614D02*
X358043Y-12390614D01*
X386614Y-12404900D01*
X400900Y-12419186D01*
X415186Y-12447757D01*
X429471Y-12504900D01*
X429471Y-12576329D01*
X415186Y-12633471D01*
X400900Y-12662043D01*
X386614Y-12676329D01*
X358043Y-12690614D01*
X329471Y-12690614D01*
X300900Y-12676329D01*
X286614Y-12662043D01*
X272329Y-12633471D01*
X258043Y-12576329D01*
X258043Y-12504900D01*
X272329Y-12447757D01*
X286614Y-12419186D01*
X300900Y-12404900D01*
X329471Y-12390614D01*
X558043Y-12662043D02*
X572329Y-12676329D01*
X558043Y-12690614D01*
X543757Y-12676329D01*
X558043Y-12662043D01*
X558043Y-12690614D01*
X743757Y-12519186D02*
X715186Y-12504900D01*
X700900Y-12490614D01*
X686614Y-12462043D01*
X686614Y-12447757D01*
X700900Y-12419186D01*
X715186Y-12404900D01*
X743757Y-12390614D01*
X800900Y-12390614D01*
X829471Y-12404900D01*
X843757Y-12419186D01*
X858043Y-12447757D01*
X858043Y-12462043D01*
X843757Y-12490614D01*
X829471Y-12504900D01*
X800900Y-12519186D01*
X743757Y-12519186D01*
X715186Y-12533471D01*
X700900Y-12547757D01*
X686614Y-12576329D01*
X686614Y-12633471D01*
X700900Y-12662043D01*
X715186Y-12676329D01*
X743757Y-12690614D01*
X800900Y-12690614D01*
X829471Y-12676329D01*
X843757Y-12662043D01*
X858043Y-12633471D01*
X858043Y-12576329D01*
X843757Y-12547757D01*
X829471Y-12533471D01*
X800900Y-12519186D01*
X1143757Y-12690614D02*
X972328Y-12690614D01*
X1058043Y-12690614D02*
X1058043Y-12390614D01*
X1029471Y-12433471D01*
X1000900Y-12462043D01*
X972328Y-12476329D01*
X1272329Y-12690614D02*
X1272329Y-12490614D01*
X1272329Y-12519186D02*
X1286614Y-12504900D01*
X1315186Y-12490614D01*
X1358043Y-12490614D01*
X1386614Y-12504900D01*
X1400900Y-12533471D01*
X1400900Y-12690614D01*
X1400900Y-12533471D02*
X1415186Y-12504900D01*
X1443757Y-12490614D01*
X1486614Y-12490614D01*
X1515186Y-12504900D01*
X1529471Y-12533471D01*
X1529471Y-12690614D01*
X1672328Y-12690614D02*
X1672328Y-12490614D01*
X1672328Y-12519186D02*
X1686614Y-12504900D01*
X1715186Y-12490614D01*
X1758043Y-12490614D01*
X1786614Y-12504900D01*
X1800900Y-12533471D01*
X1800900Y-12690614D01*
X1800900Y-12533471D02*
X1815186Y-12504900D01*
X1843757Y-12490614D01*
X1886614Y-12490614D01*
X1915186Y-12504900D01*
X1929471Y-12533471D01*
X1929471Y-12690614D01*
X2515186Y-12376329D02*
X2258043Y-12762043D01*
X2900900Y-12390614D02*
X2929471Y-12390614D01*
X2958043Y-12404900D01*
X2972328Y-12419186D01*
X2986614Y-12447757D01*
X3000900Y-12504900D01*
X3000900Y-12576329D01*
X2986614Y-12633471D01*
X2972328Y-12662043D01*
X2958043Y-12676329D01*
X2929471Y-12690614D01*
X2900900Y-12690614D01*
X2872328Y-12676329D01*
X2858043Y-12662043D01*
X2843757Y-12633471D01*
X2829471Y-12576329D01*
X2829471Y-12504900D01*
X2843757Y-12447757D01*
X2858043Y-12419186D01*
X2872328Y-12404900D01*
X2900900Y-12390614D01*
X3129471Y-12662043D02*
X3143757Y-12676329D01*
X3129471Y-12690614D01*
X3115186Y-12676329D01*
X3129471Y-12662043D01*
X3129471Y-12690614D01*
X3329471Y-12390614D02*
X3358043Y-12390614D01*
X3386614Y-12404900D01*
X3400900Y-12419186D01*
X3415185Y-12447757D01*
X3429471Y-12504900D01*
X3429471Y-12576329D01*
X3415185Y-12633471D01*
X3400900Y-12662043D01*
X3386614Y-12676329D01*
X3358043Y-12690614D01*
X3329471Y-12690614D01*
X3300900Y-12676329D01*
X3286614Y-12662043D01*
X3272328Y-12633471D01*
X3258043Y-12576329D01*
X3258043Y-12504900D01*
X3272328Y-12447757D01*
X3286614Y-12419186D01*
X3300900Y-12404900D01*
X3329471Y-12390614D01*
X3529471Y-12390614D02*
X3715185Y-12390614D01*
X3615185Y-12504900D01*
X3658043Y-12504900D01*
X3686614Y-12519186D01*
X3700900Y-12533471D01*
X3715185Y-12562043D01*
X3715185Y-12633471D01*
X3700900Y-12662043D01*
X3686614Y-12676329D01*
X3658043Y-12690614D01*
X3572328Y-12690614D01*
X3543757Y-12676329D01*
X3529471Y-12662043D01*
X3829471Y-12419186D02*
X3843757Y-12404900D01*
X3872328Y-12390614D01*
X3943757Y-12390614D01*
X3972328Y-12404900D01*
X3986614Y-12419186D01*
X4000900Y-12447757D01*
X4000900Y-12476329D01*
X3986614Y-12519186D01*
X3815185Y-12690614D01*
X4000900Y-12690614D01*
X4115186Y-12390614D02*
X4115186Y-12447757D01*
X4229471Y-12390614D02*
X4229471Y-12447757D01*
X4672328Y-12804900D02*
X4658043Y-12790614D01*
X4629471Y-12747757D01*
X4615186Y-12719186D01*
X4600900Y-12676329D01*
X4586614Y-12604900D01*
X4586614Y-12547757D01*
X4600900Y-12476329D01*
X4615186Y-12433471D01*
X4629471Y-12404900D01*
X4658043Y-12362043D01*
X4672328Y-12347757D01*
X4758043Y-12390614D02*
X4943757Y-12390614D01*
X4843757Y-12504900D01*
X4886614Y-12504900D01*
X4915186Y-12519186D01*
X4929471Y-12533471D01*
X4943757Y-12562043D01*
X4943757Y-12633471D01*
X4929471Y-12662043D01*
X4915186Y-12676329D01*
X4886614Y-12690614D01*
X4800900Y-12690614D01*
X4772328Y-12676329D01*
X4758043Y-12662043D01*
X5300900Y-12690614D02*
X5300900Y-12390614D01*
X5429471Y-12690614D02*
X5429471Y-12533471D01*
X5415186Y-12504900D01*
X5386614Y-12490614D01*
X5343757Y-12490614D01*
X5315186Y-12504900D01*
X5300900Y-12519186D01*
X5615185Y-12690614D02*
X5586614Y-12676329D01*
X5572328Y-12662043D01*
X5558043Y-12633471D01*
X5558043Y-12547757D01*
X5572328Y-12519186D01*
X5586614Y-12504900D01*
X5615185Y-12490614D01*
X5658043Y-12490614D01*
X5686614Y-12504900D01*
X5700900Y-12519186D01*
X5715185Y-12547757D01*
X5715185Y-12633471D01*
X5700900Y-12662043D01*
X5686614Y-12676329D01*
X5658043Y-12690614D01*
X5615185Y-12690614D01*
X5886614Y-12690614D02*
X5858043Y-12676329D01*
X5843757Y-12647757D01*
X5843757Y-12390614D01*
X6115186Y-12676329D02*
X6086614Y-12690614D01*
X6029471Y-12690614D01*
X6000900Y-12676329D01*
X5986614Y-12647757D01*
X5986614Y-12533471D01*
X6000900Y-12504900D01*
X6029471Y-12490614D01*
X6086614Y-12490614D01*
X6115186Y-12504900D01*
X6129471Y-12533471D01*
X6129471Y-12562043D01*
X5986614Y-12590614D01*
X6243757Y-12676329D02*
X6272328Y-12690614D01*
X6329471Y-12690614D01*
X6358043Y-12676329D01*
X6372328Y-12647757D01*
X6372328Y-12633471D01*
X6358043Y-12604900D01*
X6329471Y-12590614D01*
X6286614Y-12590614D01*
X6258043Y-12576329D01*
X6243757Y-12547757D01*
X6243757Y-12533471D01*
X6258043Y-12504900D01*
X6286614Y-12490614D01*
X6329471Y-12490614D01*
X6358043Y-12504900D01*
X6472328Y-12804900D02*
X6486614Y-12790614D01*
X6515186Y-12747757D01*
X6529471Y-12719186D01*
X6543757Y-12676329D01*
X6558043Y-12604900D01*
X6558043Y-12547757D01*
X6543757Y-12476329D01*
X6529471Y-12433471D01*
X6515186Y-12404900D01*
X6486614Y-12362043D01*
X6472328Y-12347757D01*
X-88000Y-12906450D02*
X900Y-12995350D01*
X900Y-12906450D02*
X-88000Y-12995350D01*
X900Y-12950900D02*
G75*
G03X900Y-12950900I-44450J0D01*
G01*
X329471Y-12786614D02*
X358043Y-12786614D01*
X386614Y-12800900D01*
X400900Y-12815186D01*
X415186Y-12843757D01*
X429471Y-12900900D01*
X429471Y-12972329D01*
X415186Y-13029471D01*
X400900Y-13058043D01*
X386614Y-13072329D01*
X358043Y-13086614D01*
X329471Y-13086614D01*
X300900Y-13072329D01*
X286614Y-13058043D01*
X272329Y-13029471D01*
X258043Y-12972329D01*
X258043Y-12900900D01*
X272329Y-12843757D01*
X286614Y-12815186D01*
X300900Y-12800900D01*
X329471Y-12786614D01*
X558043Y-13058043D02*
X572329Y-13072329D01*
X558043Y-13086614D01*
X543757Y-13072329D01*
X558043Y-13058043D01*
X558043Y-13086614D01*
X743757Y-12915186D02*
X715186Y-12900900D01*
X700900Y-12886614D01*
X686614Y-12858043D01*
X686614Y-12843757D01*
X700900Y-12815186D01*
X715186Y-12800900D01*
X743757Y-12786614D01*
X800900Y-12786614D01*
X829471Y-12800900D01*
X843757Y-12815186D01*
X858043Y-12843757D01*
X858043Y-12858043D01*
X843757Y-12886614D01*
X829471Y-12900900D01*
X800900Y-12915186D01*
X743757Y-12915186D01*
X715186Y-12929471D01*
X700900Y-12943757D01*
X686614Y-12972329D01*
X686614Y-13029471D01*
X700900Y-13058043D01*
X715186Y-13072329D01*
X743757Y-13086614D01*
X800900Y-13086614D01*
X829471Y-13072329D01*
X843757Y-13058043D01*
X858043Y-13029471D01*
X858043Y-12972329D01*
X843757Y-12943757D01*
X829471Y-12929471D01*
X800900Y-12915186D01*
X1000900Y-13086614D02*
X1058043Y-13086614D01*
X1086614Y-13072329D01*
X1100900Y-13058043D01*
X1129471Y-13015186D01*
X1143757Y-12958043D01*
X1143757Y-12843757D01*
X1129471Y-12815186D01*
X1115186Y-12800900D01*
X1086614Y-12786614D01*
X1029471Y-12786614D01*
X1000900Y-12800900D01*
X986614Y-12815186D01*
X972328Y-12843757D01*
X972328Y-12915186D01*
X986614Y-12943757D01*
X1000900Y-12958043D01*
X1029471Y-12972329D01*
X1086614Y-12972329D01*
X1115186Y-12958043D01*
X1129471Y-12943757D01*
X1143757Y-12915186D01*
X1272329Y-13086614D02*
X1272329Y-12886614D01*
X1272329Y-12915186D02*
X1286614Y-12900900D01*
X1315186Y-12886614D01*
X1358043Y-12886614D01*
X1386614Y-12900900D01*
X1400900Y-12929471D01*
X1400900Y-13086614D01*
X1400900Y-12929471D02*
X1415186Y-12900900D01*
X1443757Y-12886614D01*
X1486614Y-12886614D01*
X1515186Y-12900900D01*
X1529471Y-12929471D01*
X1529471Y-13086614D01*
X1672328Y-13086614D02*
X1672328Y-12886614D01*
X1672328Y-12915186D02*
X1686614Y-12900900D01*
X1715186Y-12886614D01*
X1758043Y-12886614D01*
X1786614Y-12900900D01*
X1800900Y-12929471D01*
X1800900Y-13086614D01*
X1800900Y-12929471D02*
X1815186Y-12900900D01*
X1843757Y-12886614D01*
X1886614Y-12886614D01*
X1915186Y-12900900D01*
X1929471Y-12929471D01*
X1929471Y-13086614D01*
X2515186Y-12772329D02*
X2258043Y-13158043D01*
X2900900Y-12786614D02*
X2929471Y-12786614D01*
X2958043Y-12800900D01*
X2972328Y-12815186D01*
X2986614Y-12843757D01*
X3000900Y-12900900D01*
X3000900Y-12972329D01*
X2986614Y-13029471D01*
X2972328Y-13058043D01*
X2958043Y-13072329D01*
X2929471Y-13086614D01*
X2900900Y-13086614D01*
X2872328Y-13072329D01*
X2858043Y-13058043D01*
X2843757Y-13029471D01*
X2829471Y-12972329D01*
X2829471Y-12900900D01*
X2843757Y-12843757D01*
X2858043Y-12815186D01*
X2872328Y-12800900D01*
X2900900Y-12786614D01*
X3129471Y-13058043D02*
X3143757Y-13072329D01*
X3129471Y-13086614D01*
X3115186Y-13072329D01*
X3129471Y-13058043D01*
X3129471Y-13086614D01*
X3329471Y-12786614D02*
X3358043Y-12786614D01*
X3386614Y-12800900D01*
X3400900Y-12815186D01*
X3415185Y-12843757D01*
X3429471Y-12900900D01*
X3429471Y-12972329D01*
X3415185Y-13029471D01*
X3400900Y-13058043D01*
X3386614Y-13072329D01*
X3358043Y-13086614D01*
X3329471Y-13086614D01*
X3300900Y-13072329D01*
X3286614Y-13058043D01*
X3272328Y-13029471D01*
X3258043Y-12972329D01*
X3258043Y-12900900D01*
X3272328Y-12843757D01*
X3286614Y-12815186D01*
X3300900Y-12800900D01*
X3329471Y-12786614D01*
X3529471Y-12786614D02*
X3715185Y-12786614D01*
X3615185Y-12900900D01*
X3658043Y-12900900D01*
X3686614Y-12915186D01*
X3700900Y-12929471D01*
X3715185Y-12958043D01*
X3715185Y-13029471D01*
X3700900Y-13058043D01*
X3686614Y-13072329D01*
X3658043Y-13086614D01*
X3572328Y-13086614D01*
X3543757Y-13072329D01*
X3529471Y-13058043D01*
X3986614Y-12786614D02*
X3843757Y-12786614D01*
X3829471Y-12929471D01*
X3843757Y-12915186D01*
X3872328Y-12900900D01*
X3943757Y-12900900D01*
X3972328Y-12915186D01*
X3986614Y-12929471D01*
X4000900Y-12958043D01*
X4000900Y-13029471D01*
X3986614Y-13058043D01*
X3972328Y-13072329D01*
X3943757Y-13086614D01*
X3872328Y-13086614D01*
X3843757Y-13072329D01*
X3829471Y-13058043D01*
X4115186Y-12786614D02*
X4115186Y-12843757D01*
X4229471Y-12786614D02*
X4229471Y-12843757D01*
X4672328Y-13200900D02*
X4658043Y-13186614D01*
X4629471Y-13143757D01*
X4615186Y-13115186D01*
X4600900Y-13072329D01*
X4586614Y-13000900D01*
X4586614Y-12943757D01*
X4600900Y-12872329D01*
X4615186Y-12829471D01*
X4629471Y-12800900D01*
X4658043Y-12758043D01*
X4672328Y-12743757D01*
X4829471Y-12915186D02*
X4800900Y-12900900D01*
X4786614Y-12886614D01*
X4772328Y-12858043D01*
X4772328Y-12843757D01*
X4786614Y-12815186D01*
X4800900Y-12800900D01*
X4829471Y-12786614D01*
X4886614Y-12786614D01*
X4915186Y-12800900D01*
X4929471Y-12815186D01*
X4943757Y-12843757D01*
X4943757Y-12858043D01*
X4929471Y-12886614D01*
X4915186Y-12900900D01*
X4886614Y-12915186D01*
X4829471Y-12915186D01*
X4800900Y-12929471D01*
X4786614Y-12943757D01*
X4772328Y-12972329D01*
X4772328Y-13029471D01*
X4786614Y-13058043D01*
X4800900Y-13072329D01*
X4829471Y-13086614D01*
X4886614Y-13086614D01*
X4915186Y-13072329D01*
X4929471Y-13058043D01*
X4943757Y-13029471D01*
X4943757Y-12972329D01*
X4929471Y-12943757D01*
X4915186Y-12929471D01*
X4886614Y-12915186D01*
X5300900Y-13086614D02*
X5300900Y-12786614D01*
X5429471Y-13086614D02*
X5429471Y-12929471D01*
X5415186Y-12900900D01*
X5386614Y-12886614D01*
X5343757Y-12886614D01*
X5315186Y-12900900D01*
X5300900Y-12915186D01*
X5615185Y-13086614D02*
X5586614Y-13072329D01*
X5572328Y-13058043D01*
X5558043Y-13029471D01*
X5558043Y-12943757D01*
X5572328Y-12915186D01*
X5586614Y-12900900D01*
X5615185Y-12886614D01*
X5658043Y-12886614D01*
X5686614Y-12900900D01*
X5700900Y-12915186D01*
X5715185Y-12943757D01*
X5715185Y-13029471D01*
X5700900Y-13058043D01*
X5686614Y-13072329D01*
X5658043Y-13086614D01*
X5615185Y-13086614D01*
X5886614Y-13086614D02*
X5858043Y-13072329D01*
X5843757Y-13043757D01*
X5843757Y-12786614D01*
X6115186Y-13072329D02*
X6086614Y-13086614D01*
X6029471Y-13086614D01*
X6000900Y-13072329D01*
X5986614Y-13043757D01*
X5986614Y-12929471D01*
X6000900Y-12900900D01*
X6029471Y-12886614D01*
X6086614Y-12886614D01*
X6115186Y-12900900D01*
X6129471Y-12929471D01*
X6129471Y-12958043D01*
X5986614Y-12986614D01*
X6243757Y-13072329D02*
X6272328Y-13086614D01*
X6329471Y-13086614D01*
X6358043Y-13072329D01*
X6372328Y-13043757D01*
X6372328Y-13029471D01*
X6358043Y-13000900D01*
X6329471Y-12986614D01*
X6286614Y-12986614D01*
X6258043Y-12972329D01*
X6243757Y-12943757D01*
X6243757Y-12929471D01*
X6258043Y-12900900D01*
X6286614Y-12886614D01*
X6329471Y-12886614D01*
X6358043Y-12900900D01*
X6472328Y-13200900D02*
X6486614Y-13186614D01*
X6515186Y-13143757D01*
X6529471Y-13115186D01*
X6543757Y-13072329D01*
X6558043Y-13000900D01*
X6558043Y-12943757D01*
X6543757Y-12872329D01*
X6529471Y-12829471D01*
X6515186Y-12800900D01*
X6486614Y-12758043D01*
X6472328Y-12743757D01*
X-98100Y-13297400D02*
X900Y-13396400D01*
X900Y-13297400D02*
X-98100Y-13396400D01*
X-48600Y-13297400D02*
X-48600Y-13396400D01*
X-98100Y-13346900D02*
X900Y-13346900D01*
X329471Y-13182614D02*
X358043Y-13182614D01*
X386614Y-13196900D01*
X400900Y-13211186D01*
X415186Y-13239757D01*
X429471Y-13296900D01*
X429471Y-13368329D01*
X415186Y-13425471D01*
X400900Y-13454043D01*
X386614Y-13468329D01*
X358043Y-13482614D01*
X329471Y-13482614D01*
X300900Y-13468329D01*
X286614Y-13454043D01*
X272329Y-13425471D01*
X258043Y-13368329D01*
X258043Y-13296900D01*
X272329Y-13239757D01*
X286614Y-13211186D01*
X300900Y-13196900D01*
X329471Y-13182614D01*
X558043Y-13454043D02*
X572329Y-13468329D01*
X558043Y-13482614D01*
X543757Y-13468329D01*
X558043Y-13454043D01*
X558043Y-13482614D01*
X715186Y-13482614D02*
X772328Y-13482614D01*
X800900Y-13468329D01*
X815186Y-13454043D01*
X843757Y-13411186D01*
X858043Y-13354043D01*
X858043Y-13239757D01*
X843757Y-13211186D01*
X829471Y-13196900D01*
X800900Y-13182614D01*
X743757Y-13182614D01*
X715186Y-13196900D01*
X700900Y-13211186D01*
X686614Y-13239757D01*
X686614Y-13311186D01*
X700900Y-13339757D01*
X715186Y-13354043D01*
X743757Y-13368329D01*
X800900Y-13368329D01*
X829471Y-13354043D01*
X843757Y-13339757D01*
X858043Y-13311186D01*
X1000900Y-13482614D02*
X1058043Y-13482614D01*
X1086614Y-13468329D01*
X1100900Y-13454043D01*
X1129471Y-13411186D01*
X1143757Y-13354043D01*
X1143757Y-13239757D01*
X1129471Y-13211186D01*
X1115186Y-13196900D01*
X1086614Y-13182614D01*
X1029471Y-13182614D01*
X1000900Y-13196900D01*
X986614Y-13211186D01*
X972328Y-13239757D01*
X972328Y-13311186D01*
X986614Y-13339757D01*
X1000900Y-13354043D01*
X1029471Y-13368329D01*
X1086614Y-13368329D01*
X1115186Y-13354043D01*
X1129471Y-13339757D01*
X1143757Y-13311186D01*
X1272329Y-13482614D02*
X1272329Y-13282614D01*
X1272329Y-13311186D02*
X1286614Y-13296900D01*
X1315186Y-13282614D01*
X1358043Y-13282614D01*
X1386614Y-13296900D01*
X1400900Y-13325471D01*
X1400900Y-13482614D01*
X1400900Y-13325471D02*
X1415186Y-13296900D01*
X1443757Y-13282614D01*
X1486614Y-13282614D01*
X1515186Y-13296900D01*
X1529471Y-13325471D01*
X1529471Y-13482614D01*
X1672328Y-13482614D02*
X1672328Y-13282614D01*
X1672328Y-13311186D02*
X1686614Y-13296900D01*
X1715186Y-13282614D01*
X1758043Y-13282614D01*
X1786614Y-13296900D01*
X1800900Y-13325471D01*
X1800900Y-13482614D01*
X1800900Y-13325471D02*
X1815186Y-13296900D01*
X1843757Y-13282614D01*
X1886614Y-13282614D01*
X1915186Y-13296900D01*
X1929471Y-13325471D01*
X1929471Y-13482614D01*
X2515186Y-13168329D02*
X2258043Y-13554043D01*
X2900900Y-13182614D02*
X2929471Y-13182614D01*
X2958043Y-13196900D01*
X2972328Y-13211186D01*
X2986614Y-13239757D01*
X3000900Y-13296900D01*
X3000900Y-13368329D01*
X2986614Y-13425471D01*
X2972328Y-13454043D01*
X2958043Y-13468329D01*
X2929471Y-13482614D01*
X2900900Y-13482614D01*
X2872328Y-13468329D01*
X2858043Y-13454043D01*
X2843757Y-13425471D01*
X2829471Y-13368329D01*
X2829471Y-13296900D01*
X2843757Y-13239757D01*
X2858043Y-13211186D01*
X2872328Y-13196900D01*
X2900900Y-13182614D01*
X3129471Y-13454043D02*
X3143757Y-13468329D01*
X3129471Y-13482614D01*
X3115186Y-13468329D01*
X3129471Y-13454043D01*
X3129471Y-13482614D01*
X3329471Y-13182614D02*
X3358043Y-13182614D01*
X3386614Y-13196900D01*
X3400900Y-13211186D01*
X3415185Y-13239757D01*
X3429471Y-13296900D01*
X3429471Y-13368329D01*
X3415185Y-13425471D01*
X3400900Y-13454043D01*
X3386614Y-13468329D01*
X3358043Y-13482614D01*
X3329471Y-13482614D01*
X3300900Y-13468329D01*
X3286614Y-13454043D01*
X3272328Y-13425471D01*
X3258043Y-13368329D01*
X3258043Y-13296900D01*
X3272328Y-13239757D01*
X3286614Y-13211186D01*
X3300900Y-13196900D01*
X3329471Y-13182614D01*
X3529471Y-13182614D02*
X3715185Y-13182614D01*
X3615185Y-13296900D01*
X3658043Y-13296900D01*
X3686614Y-13311186D01*
X3700900Y-13325471D01*
X3715185Y-13354043D01*
X3715185Y-13425471D01*
X3700900Y-13454043D01*
X3686614Y-13468329D01*
X3658043Y-13482614D01*
X3572328Y-13482614D01*
X3543757Y-13468329D01*
X3529471Y-13454043D01*
X3858043Y-13482614D02*
X3915185Y-13482614D01*
X3943757Y-13468329D01*
X3958043Y-13454043D01*
X3986614Y-13411186D01*
X4000900Y-13354043D01*
X4000900Y-13239757D01*
X3986614Y-13211186D01*
X3972328Y-13196900D01*
X3943757Y-13182614D01*
X3886614Y-13182614D01*
X3858043Y-13196900D01*
X3843757Y-13211186D01*
X3829471Y-13239757D01*
X3829471Y-13311186D01*
X3843757Y-13339757D01*
X3858043Y-13354043D01*
X3886614Y-13368329D01*
X3943757Y-13368329D01*
X3972328Y-13354043D01*
X3986614Y-13339757D01*
X4000900Y-13311186D01*
X4115186Y-13182614D02*
X4115186Y-13239757D01*
X4229471Y-13182614D02*
X4229471Y-13239757D01*
X4672328Y-13596900D02*
X4658043Y-13582614D01*
X4629471Y-13539757D01*
X4615186Y-13511186D01*
X4600900Y-13468329D01*
X4586614Y-13396900D01*
X4586614Y-13339757D01*
X4600900Y-13268329D01*
X4615186Y-13225471D01*
X4629471Y-13196900D01*
X4658043Y-13154043D01*
X4672328Y-13139757D01*
X4915186Y-13282614D02*
X4915186Y-13482614D01*
X4843757Y-13168329D02*
X4772328Y-13382614D01*
X4958043Y-13382614D01*
X5300900Y-13482614D02*
X5300900Y-13182614D01*
X5429471Y-13482614D02*
X5429471Y-13325471D01*
X5415186Y-13296900D01*
X5386614Y-13282614D01*
X5343757Y-13282614D01*
X5315186Y-13296900D01*
X5300900Y-13311186D01*
X5615185Y-13482614D02*
X5586614Y-13468329D01*
X5572328Y-13454043D01*
X5558043Y-13425471D01*
X5558043Y-13339757D01*
X5572328Y-13311186D01*
X5586614Y-13296900D01*
X5615185Y-13282614D01*
X5658043Y-13282614D01*
X5686614Y-13296900D01*
X5700900Y-13311186D01*
X5715185Y-13339757D01*
X5715185Y-13425471D01*
X5700900Y-13454043D01*
X5686614Y-13468329D01*
X5658043Y-13482614D01*
X5615185Y-13482614D01*
X5886614Y-13482614D02*
X5858043Y-13468329D01*
X5843757Y-13439757D01*
X5843757Y-13182614D01*
X6115186Y-13468329D02*
X6086614Y-13482614D01*
X6029471Y-13482614D01*
X6000900Y-13468329D01*
X5986614Y-13439757D01*
X5986614Y-13325471D01*
X6000900Y-13296900D01*
X6029471Y-13282614D01*
X6086614Y-13282614D01*
X6115186Y-13296900D01*
X6129471Y-13325471D01*
X6129471Y-13354043D01*
X5986614Y-13382614D01*
X6243757Y-13468329D02*
X6272328Y-13482614D01*
X6329471Y-13482614D01*
X6358043Y-13468329D01*
X6372328Y-13439757D01*
X6372328Y-13425471D01*
X6358043Y-13396900D01*
X6329471Y-13382614D01*
X6286614Y-13382614D01*
X6258043Y-13368329D01*
X6243757Y-13339757D01*
X6243757Y-13325471D01*
X6258043Y-13296900D01*
X6286614Y-13282614D01*
X6329471Y-13282614D01*
X6358043Y-13296900D01*
X6472328Y-13596900D02*
X6486614Y-13582614D01*
X6515186Y-13539757D01*
X6529471Y-13511186D01*
X6543757Y-13468329D01*
X6558043Y-13396900D01*
X6558043Y-13339757D01*
X6543757Y-13268329D01*
X6529471Y-13225471D01*
X6515186Y-13196900D01*
X6486614Y-13154043D01*
X6472328Y-13139757D01*
X-98922Y-13692989D02*
X900Y-13792811D01*
X900Y-13692989D02*
X-98922Y-13792811D01*
X-13718Y-13778193D02*
X-13718Y-13707607D01*
X-84304Y-13707607D01*
X-84304Y-13778193D01*
X-13718Y-13778193D01*
X429471Y-13878614D02*
X258043Y-13878614D01*
X343757Y-13878614D02*
X343757Y-13578614D01*
X315186Y-13621471D01*
X286614Y-13650043D01*
X258043Y-13664329D01*
X558043Y-13850043D02*
X572329Y-13864329D01*
X558043Y-13878614D01*
X543757Y-13864329D01*
X558043Y-13850043D01*
X558043Y-13878614D01*
X758043Y-13578614D02*
X786614Y-13578614D01*
X815186Y-13592900D01*
X829471Y-13607186D01*
X843757Y-13635757D01*
X858043Y-13692900D01*
X858043Y-13764329D01*
X843757Y-13821471D01*
X829471Y-13850043D01*
X815186Y-13864329D01*
X786614Y-13878614D01*
X758043Y-13878614D01*
X729471Y-13864329D01*
X715186Y-13850043D01*
X700900Y-13821471D01*
X686614Y-13764329D01*
X686614Y-13692900D01*
X700900Y-13635757D01*
X715186Y-13607186D01*
X729471Y-13592900D01*
X758043Y-13578614D01*
X1043757Y-13578614D02*
X1072329Y-13578614D01*
X1100900Y-13592900D01*
X1115186Y-13607186D01*
X1129471Y-13635757D01*
X1143757Y-13692900D01*
X1143757Y-13764329D01*
X1129471Y-13821471D01*
X1115186Y-13850043D01*
X1100900Y-13864329D01*
X1072329Y-13878614D01*
X1043757Y-13878614D01*
X1015186Y-13864329D01*
X1000900Y-13850043D01*
X986614Y-13821471D01*
X972328Y-13764329D01*
X972328Y-13692900D01*
X986614Y-13635757D01*
X1000900Y-13607186D01*
X1015186Y-13592900D01*
X1043757Y-13578614D01*
X1272329Y-13878614D02*
X1272329Y-13678614D01*
X1272329Y-13707186D02*
X1286614Y-13692900D01*
X1315186Y-13678614D01*
X1358043Y-13678614D01*
X1386614Y-13692900D01*
X1400900Y-13721471D01*
X1400900Y-13878614D01*
X1400900Y-13721471D02*
X1415186Y-13692900D01*
X1443757Y-13678614D01*
X1486614Y-13678614D01*
X1515186Y-13692900D01*
X1529471Y-13721471D01*
X1529471Y-13878614D01*
X1672328Y-13878614D02*
X1672328Y-13678614D01*
X1672328Y-13707186D02*
X1686614Y-13692900D01*
X1715186Y-13678614D01*
X1758043Y-13678614D01*
X1786614Y-13692900D01*
X1800900Y-13721471D01*
X1800900Y-13878614D01*
X1800900Y-13721471D02*
X1815186Y-13692900D01*
X1843757Y-13678614D01*
X1886614Y-13678614D01*
X1915186Y-13692900D01*
X1929471Y-13721471D01*
X1929471Y-13878614D01*
X2515186Y-13564329D02*
X2258043Y-13950043D01*
X2900900Y-13578614D02*
X2929471Y-13578614D01*
X2958043Y-13592900D01*
X2972328Y-13607186D01*
X2986614Y-13635757D01*
X3000900Y-13692900D01*
X3000900Y-13764329D01*
X2986614Y-13821471D01*
X2972328Y-13850043D01*
X2958043Y-13864329D01*
X2929471Y-13878614D01*
X2900900Y-13878614D01*
X2872328Y-13864329D01*
X2858043Y-13850043D01*
X2843757Y-13821471D01*
X2829471Y-13764329D01*
X2829471Y-13692900D01*
X2843757Y-13635757D01*
X2858043Y-13607186D01*
X2872328Y-13592900D01*
X2900900Y-13578614D01*
X3129471Y-13850043D02*
X3143757Y-13864329D01*
X3129471Y-13878614D01*
X3115186Y-13864329D01*
X3129471Y-13850043D01*
X3129471Y-13878614D01*
X3329471Y-13578614D02*
X3358043Y-13578614D01*
X3386614Y-13592900D01*
X3400900Y-13607186D01*
X3415185Y-13635757D01*
X3429471Y-13692900D01*
X3429471Y-13764329D01*
X3415185Y-13821471D01*
X3400900Y-13850043D01*
X3386614Y-13864329D01*
X3358043Y-13878614D01*
X3329471Y-13878614D01*
X3300900Y-13864329D01*
X3286614Y-13850043D01*
X3272328Y-13821471D01*
X3258043Y-13764329D01*
X3258043Y-13692900D01*
X3272328Y-13635757D01*
X3286614Y-13607186D01*
X3300900Y-13592900D01*
X3329471Y-13578614D01*
X3529471Y-13578614D02*
X3715185Y-13578614D01*
X3615185Y-13692900D01*
X3658043Y-13692900D01*
X3686614Y-13707186D01*
X3700900Y-13721471D01*
X3715185Y-13750043D01*
X3715185Y-13821471D01*
X3700900Y-13850043D01*
X3686614Y-13864329D01*
X3658043Y-13878614D01*
X3572328Y-13878614D01*
X3543757Y-13864329D01*
X3529471Y-13850043D01*
X3858043Y-13878614D02*
X3915185Y-13878614D01*
X3943757Y-13864329D01*
X3958043Y-13850043D01*
X3986614Y-13807186D01*
X4000900Y-13750043D01*
X4000900Y-13635757D01*
X3986614Y-13607186D01*
X3972328Y-13592900D01*
X3943757Y-13578614D01*
X3886614Y-13578614D01*
X3858043Y-13592900D01*
X3843757Y-13607186D01*
X3829471Y-13635757D01*
X3829471Y-13707186D01*
X3843757Y-13735757D01*
X3858043Y-13750043D01*
X3886614Y-13764329D01*
X3943757Y-13764329D01*
X3972328Y-13750043D01*
X3986614Y-13735757D01*
X4000900Y-13707186D01*
X4115186Y-13578614D02*
X4115186Y-13635757D01*
X4229471Y-13578614D02*
X4229471Y-13635757D01*
X4672328Y-13992900D02*
X4658043Y-13978614D01*
X4629471Y-13935757D01*
X4615186Y-13907186D01*
X4600900Y-13864329D01*
X4586614Y-13792900D01*
X4586614Y-13735757D01*
X4600900Y-13664329D01*
X4615186Y-13621471D01*
X4629471Y-13592900D01*
X4658043Y-13550043D01*
X4672328Y-13535757D01*
X4772328Y-13607186D02*
X4786614Y-13592900D01*
X4815186Y-13578614D01*
X4886614Y-13578614D01*
X4915186Y-13592900D01*
X4929471Y-13607186D01*
X4943757Y-13635757D01*
X4943757Y-13664329D01*
X4929471Y-13707186D01*
X4758043Y-13878614D01*
X4943757Y-13878614D01*
X5300900Y-13878614D02*
X5300900Y-13578614D01*
X5429471Y-13878614D02*
X5429471Y-13721471D01*
X5415186Y-13692900D01*
X5386614Y-13678614D01*
X5343757Y-13678614D01*
X5315186Y-13692900D01*
X5300900Y-13707186D01*
X5615185Y-13878614D02*
X5586614Y-13864329D01*
X5572328Y-13850043D01*
X5558043Y-13821471D01*
X5558043Y-13735757D01*
X5572328Y-13707186D01*
X5586614Y-13692900D01*
X5615185Y-13678614D01*
X5658043Y-13678614D01*
X5686614Y-13692900D01*
X5700900Y-13707186D01*
X5715185Y-13735757D01*
X5715185Y-13821471D01*
X5700900Y-13850043D01*
X5686614Y-13864329D01*
X5658043Y-13878614D01*
X5615185Y-13878614D01*
X5886614Y-13878614D02*
X5858043Y-13864329D01*
X5843757Y-13835757D01*
X5843757Y-13578614D01*
X6115186Y-13864329D02*
X6086614Y-13878614D01*
X6029471Y-13878614D01*
X6000900Y-13864329D01*
X5986614Y-13835757D01*
X5986614Y-13721471D01*
X6000900Y-13692900D01*
X6029471Y-13678614D01*
X6086614Y-13678614D01*
X6115186Y-13692900D01*
X6129471Y-13721471D01*
X6129471Y-13750043D01*
X5986614Y-13778614D01*
X6243757Y-13864329D02*
X6272328Y-13878614D01*
X6329471Y-13878614D01*
X6358043Y-13864329D01*
X6372328Y-13835757D01*
X6372328Y-13821471D01*
X6358043Y-13792900D01*
X6329471Y-13778614D01*
X6286614Y-13778614D01*
X6258043Y-13764329D01*
X6243757Y-13735757D01*
X6243757Y-13721471D01*
X6258043Y-13692900D01*
X6286614Y-13678614D01*
X6329471Y-13678614D01*
X6358043Y-13692900D01*
X6472328Y-13992900D02*
X6486614Y-13978614D01*
X6515186Y-13935757D01*
X6529471Y-13907186D01*
X6543757Y-13864329D01*
X6558043Y-13792900D01*
X6558043Y-13735757D01*
X6543757Y-13664329D01*
X6529471Y-13621471D01*
X6515186Y-13592900D01*
X6486614Y-13550043D01*
X6472328Y-13535757D01*
X-100700Y-14088100D02*
X900Y-14189700D01*
X900Y-14088100D02*
X-100700Y-14189700D01*
X-49900Y-14189700D02*
X900Y-14138900D01*
X-49900Y-14088100D01*
X-100700Y-14138900D01*
X-49900Y-14189700D01*
X429471Y-14274614D02*
X258043Y-14274614D01*
X343757Y-14274614D02*
X343757Y-13974614D01*
X315186Y-14017471D01*
X286614Y-14046043D01*
X258043Y-14060329D01*
X558043Y-14246043D02*
X572329Y-14260329D01*
X558043Y-14274614D01*
X543757Y-14260329D01*
X558043Y-14246043D01*
X558043Y-14274614D01*
X758043Y-13974614D02*
X786614Y-13974614D01*
X815186Y-13988900D01*
X829471Y-14003186D01*
X843757Y-14031757D01*
X858043Y-14088900D01*
X858043Y-14160329D01*
X843757Y-14217471D01*
X829471Y-14246043D01*
X815186Y-14260329D01*
X786614Y-14274614D01*
X758043Y-14274614D01*
X729471Y-14260329D01*
X715186Y-14246043D01*
X700900Y-14217471D01*
X686614Y-14160329D01*
X686614Y-14088900D01*
X700900Y-14031757D01*
X715186Y-14003186D01*
X729471Y-13988900D01*
X758043Y-13974614D01*
X972328Y-14003186D02*
X986614Y-13988900D01*
X1015186Y-13974614D01*
X1086614Y-13974614D01*
X1115186Y-13988900D01*
X1129471Y-14003186D01*
X1143757Y-14031757D01*
X1143757Y-14060329D01*
X1129471Y-14103186D01*
X958043Y-14274614D01*
X1143757Y-14274614D01*
X1272329Y-14274614D02*
X1272329Y-14074614D01*
X1272329Y-14103186D02*
X1286614Y-14088900D01*
X1315186Y-14074614D01*
X1358043Y-14074614D01*
X1386614Y-14088900D01*
X1400900Y-14117471D01*
X1400900Y-14274614D01*
X1400900Y-14117471D02*
X1415186Y-14088900D01*
X1443757Y-14074614D01*
X1486614Y-14074614D01*
X1515186Y-14088900D01*
X1529471Y-14117471D01*
X1529471Y-14274614D01*
X1672328Y-14274614D02*
X1672328Y-14074614D01*
X1672328Y-14103186D02*
X1686614Y-14088900D01*
X1715186Y-14074614D01*
X1758043Y-14074614D01*
X1786614Y-14088900D01*
X1800900Y-14117471D01*
X1800900Y-14274614D01*
X1800900Y-14117471D02*
X1815186Y-14088900D01*
X1843757Y-14074614D01*
X1886614Y-14074614D01*
X1915186Y-14088900D01*
X1929471Y-14117471D01*
X1929471Y-14274614D01*
X2515186Y-13960329D02*
X2258043Y-14346043D01*
X2900900Y-13974614D02*
X2929471Y-13974614D01*
X2958043Y-13988900D01*
X2972328Y-14003186D01*
X2986614Y-14031757D01*
X3000900Y-14088900D01*
X3000900Y-14160329D01*
X2986614Y-14217471D01*
X2972328Y-14246043D01*
X2958043Y-14260329D01*
X2929471Y-14274614D01*
X2900900Y-14274614D01*
X2872328Y-14260329D01*
X2858043Y-14246043D01*
X2843757Y-14217471D01*
X2829471Y-14160329D01*
X2829471Y-14088900D01*
X2843757Y-14031757D01*
X2858043Y-14003186D01*
X2872328Y-13988900D01*
X2900900Y-13974614D01*
X3129471Y-14246043D02*
X3143757Y-14260329D01*
X3129471Y-14274614D01*
X3115186Y-14260329D01*
X3129471Y-14246043D01*
X3129471Y-14274614D01*
X3329471Y-13974614D02*
X3358043Y-13974614D01*
X3386614Y-13988900D01*
X3400900Y-14003186D01*
X3415185Y-14031757D01*
X3429471Y-14088900D01*
X3429471Y-14160329D01*
X3415185Y-14217471D01*
X3400900Y-14246043D01*
X3386614Y-14260329D01*
X3358043Y-14274614D01*
X3329471Y-14274614D01*
X3300900Y-14260329D01*
X3286614Y-14246043D01*
X3272328Y-14217471D01*
X3258043Y-14160329D01*
X3258043Y-14088900D01*
X3272328Y-14031757D01*
X3286614Y-14003186D01*
X3300900Y-13988900D01*
X3329471Y-13974614D01*
X3686614Y-14074614D02*
X3686614Y-14274614D01*
X3615185Y-13960329D02*
X3543757Y-14174614D01*
X3729471Y-14174614D01*
X3900900Y-13974614D02*
X3929471Y-13974614D01*
X3958043Y-13988900D01*
X3972328Y-14003186D01*
X3986614Y-14031757D01*
X4000900Y-14088900D01*
X4000900Y-14160329D01*
X3986614Y-14217471D01*
X3972328Y-14246043D01*
X3958043Y-14260329D01*
X3929471Y-14274614D01*
X3900900Y-14274614D01*
X3872328Y-14260329D01*
X3858043Y-14246043D01*
X3843757Y-14217471D01*
X3829471Y-14160329D01*
X3829471Y-14088900D01*
X3843757Y-14031757D01*
X3858043Y-14003186D01*
X3872328Y-13988900D01*
X3900900Y-13974614D01*
X4115186Y-13974614D02*
X4115186Y-14031757D01*
X4229471Y-13974614D02*
X4229471Y-14031757D01*
X4672328Y-14388900D02*
X4658043Y-14374614D01*
X4629471Y-14331757D01*
X4615186Y-14303186D01*
X4600900Y-14260329D01*
X4586614Y-14188900D01*
X4586614Y-14131757D01*
X4600900Y-14060329D01*
X4615186Y-14017471D01*
X4629471Y-13988900D01*
X4658043Y-13946043D01*
X4672328Y-13931757D01*
X4929471Y-13974614D02*
X4786614Y-13974614D01*
X4772328Y-14117471D01*
X4786614Y-14103186D01*
X4815186Y-14088900D01*
X4886614Y-14088900D01*
X4915186Y-14103186D01*
X4929471Y-14117471D01*
X4943757Y-14146043D01*
X4943757Y-14217471D01*
X4929471Y-14246043D01*
X4915186Y-14260329D01*
X4886614Y-14274614D01*
X4815186Y-14274614D01*
X4786614Y-14260329D01*
X4772328Y-14246043D01*
X5043757Y-13974614D02*
X5243757Y-13974614D01*
X5115186Y-14274614D01*
X5586614Y-14274614D02*
X5586614Y-13974614D01*
X5715185Y-14274614D02*
X5715185Y-14117471D01*
X5700900Y-14088900D01*
X5672328Y-14074614D01*
X5629471Y-14074614D01*
X5600900Y-14088900D01*
X5586614Y-14103186D01*
X5900900Y-14274614D02*
X5872328Y-14260329D01*
X5858043Y-14246043D01*
X5843757Y-14217471D01*
X5843757Y-14131757D01*
X5858043Y-14103186D01*
X5872328Y-14088900D01*
X5900900Y-14074614D01*
X5943757Y-14074614D01*
X5972328Y-14088900D01*
X5986614Y-14103186D01*
X6000900Y-14131757D01*
X6000900Y-14217471D01*
X5986614Y-14246043D01*
X5972328Y-14260329D01*
X5943757Y-14274614D01*
X5900900Y-14274614D01*
X6172328Y-14274614D02*
X6143757Y-14260329D01*
X6129471Y-14231757D01*
X6129471Y-13974614D01*
X6400900Y-14260329D02*
X6372328Y-14274614D01*
X6315186Y-14274614D01*
X6286614Y-14260329D01*
X6272328Y-14231757D01*
X6272328Y-14117471D01*
X6286614Y-14088900D01*
X6315186Y-14074614D01*
X6372328Y-14074614D01*
X6400900Y-14088900D01*
X6415186Y-14117471D01*
X6415186Y-14146043D01*
X6272328Y-14174614D01*
X6529471Y-14260329D02*
X6558043Y-14274614D01*
X6615186Y-14274614D01*
X6643757Y-14260329D01*
X6658043Y-14231757D01*
X6658043Y-14217471D01*
X6643757Y-14188900D01*
X6615186Y-14174614D01*
X6572328Y-14174614D01*
X6543757Y-14160329D01*
X6529471Y-14131757D01*
X6529471Y-14117471D01*
X6543757Y-14088900D01*
X6572328Y-14074614D01*
X6615186Y-14074614D01*
X6643757Y-14088900D01*
X6758043Y-14388900D02*
X6772328Y-14374614D01*
X6800900Y-14331757D01*
X6815186Y-14303186D01*
X6829471Y-14260329D01*
X6843757Y-14188900D01*
X6843757Y-14131757D01*
X6829471Y-14060329D01*
X6815186Y-14017471D01*
X6800900Y-13988900D01*
X6772328Y-13946043D01*
X6758043Y-13931757D01*
X-64100Y-14469900D02*
X-64100Y-14599900D01*
X-129100Y-14534900D02*
X900Y-14534900D01*
X900Y-14534900D02*
G75*
G03X900Y-14534900I-65000J0D01*
G01*
X429471Y-14670614D02*
X258043Y-14670614D01*
X343757Y-14670614D02*
X343757Y-14370614D01*
X315186Y-14413471D01*
X286614Y-14442043D01*
X258043Y-14456329D01*
X558043Y-14642043D02*
X572329Y-14656329D01*
X558043Y-14670614D01*
X543757Y-14656329D01*
X558043Y-14642043D01*
X558043Y-14670614D01*
X672328Y-14370614D02*
X858043Y-14370614D01*
X758043Y-14484900D01*
X800900Y-14484900D01*
X829471Y-14499186D01*
X843757Y-14513471D01*
X858043Y-14542043D01*
X858043Y-14613471D01*
X843757Y-14642043D01*
X829471Y-14656329D01*
X800900Y-14670614D01*
X715186Y-14670614D01*
X686614Y-14656329D01*
X672328Y-14642043D01*
X1043757Y-14370614D02*
X1072329Y-14370614D01*
X1100900Y-14384900D01*
X1115186Y-14399186D01*
X1129471Y-14427757D01*
X1143757Y-14484900D01*
X1143757Y-14556329D01*
X1129471Y-14613471D01*
X1115186Y-14642043D01*
X1100900Y-14656329D01*
X1072329Y-14670614D01*
X1043757Y-14670614D01*
X1015186Y-14656329D01*
X1000900Y-14642043D01*
X986614Y-14613471D01*
X972328Y-14556329D01*
X972328Y-14484900D01*
X986614Y-14427757D01*
X1000900Y-14399186D01*
X1015186Y-14384900D01*
X1043757Y-14370614D01*
X1272329Y-14670614D02*
X1272329Y-14470614D01*
X1272329Y-14499186D02*
X1286614Y-14484900D01*
X1315186Y-14470614D01*
X1358043Y-14470614D01*
X1386614Y-14484900D01*
X1400900Y-14513471D01*
X1400900Y-14670614D01*
X1400900Y-14513471D02*
X1415186Y-14484900D01*
X1443757Y-14470614D01*
X1486614Y-14470614D01*
X1515186Y-14484900D01*
X1529471Y-14513471D01*
X1529471Y-14670614D01*
X1672328Y-14670614D02*
X1672328Y-14470614D01*
X1672328Y-14499186D02*
X1686614Y-14484900D01*
X1715186Y-14470614D01*
X1758043Y-14470614D01*
X1786614Y-14484900D01*
X1800900Y-14513471D01*
X1800900Y-14670614D01*
X1800900Y-14513471D02*
X1815186Y-14484900D01*
X1843757Y-14470614D01*
X1886614Y-14470614D01*
X1915186Y-14484900D01*
X1929471Y-14513471D01*
X1929471Y-14670614D01*
X2515186Y-14356329D02*
X2258043Y-14742043D01*
X2900900Y-14370614D02*
X2929471Y-14370614D01*
X2958043Y-14384900D01*
X2972328Y-14399186D01*
X2986614Y-14427757D01*
X3000900Y-14484900D01*
X3000900Y-14556329D01*
X2986614Y-14613471D01*
X2972328Y-14642043D01*
X2958043Y-14656329D01*
X2929471Y-14670614D01*
X2900900Y-14670614D01*
X2872328Y-14656329D01*
X2858043Y-14642043D01*
X2843757Y-14613471D01*
X2829471Y-14556329D01*
X2829471Y-14484900D01*
X2843757Y-14427757D01*
X2858043Y-14399186D01*
X2872328Y-14384900D01*
X2900900Y-14370614D01*
X3129471Y-14642043D02*
X3143757Y-14656329D01*
X3129471Y-14670614D01*
X3115186Y-14656329D01*
X3129471Y-14642043D01*
X3129471Y-14670614D01*
X3329471Y-14370614D02*
X3358043Y-14370614D01*
X3386614Y-14384900D01*
X3400900Y-14399186D01*
X3415185Y-14427757D01*
X3429471Y-14484900D01*
X3429471Y-14556329D01*
X3415185Y-14613471D01*
X3400900Y-14642043D01*
X3386614Y-14656329D01*
X3358043Y-14670614D01*
X3329471Y-14670614D01*
X3300900Y-14656329D01*
X3286614Y-14642043D01*
X3272328Y-14613471D01*
X3258043Y-14556329D01*
X3258043Y-14484900D01*
X3272328Y-14427757D01*
X3286614Y-14399186D01*
X3300900Y-14384900D01*
X3329471Y-14370614D01*
X3700900Y-14370614D02*
X3558043Y-14370614D01*
X3543757Y-14513471D01*
X3558043Y-14499186D01*
X3586614Y-14484900D01*
X3658043Y-14484900D01*
X3686614Y-14499186D01*
X3700900Y-14513471D01*
X3715185Y-14542043D01*
X3715185Y-14613471D01*
X3700900Y-14642043D01*
X3686614Y-14656329D01*
X3658043Y-14670614D01*
X3586614Y-14670614D01*
X3558043Y-14656329D01*
X3543757Y-14642043D01*
X4000900Y-14670614D02*
X3829471Y-14670614D01*
X3915185Y-14670614D02*
X3915185Y-14370614D01*
X3886614Y-14413471D01*
X3858043Y-14442043D01*
X3829471Y-14456329D01*
X4115186Y-14370614D02*
X4115186Y-14427757D01*
X4229471Y-14370614D02*
X4229471Y-14427757D01*
X4672328Y-14784900D02*
X4658043Y-14770614D01*
X4629471Y-14727757D01*
X4615186Y-14699186D01*
X4600900Y-14656329D01*
X4586614Y-14584900D01*
X4586614Y-14527757D01*
X4600900Y-14456329D01*
X4615186Y-14413471D01*
X4629471Y-14384900D01*
X4658043Y-14342043D01*
X4672328Y-14327757D01*
X4915186Y-14470614D02*
X4915186Y-14670614D01*
X4843757Y-14356329D02*
X4772328Y-14570614D01*
X4958043Y-14570614D01*
X5300900Y-14670614D02*
X5300900Y-14370614D01*
X5429471Y-14670614D02*
X5429471Y-14513471D01*
X5415186Y-14484900D01*
X5386614Y-14470614D01*
X5343757Y-14470614D01*
X5315186Y-14484900D01*
X5300900Y-14499186D01*
X5615185Y-14670614D02*
X5586614Y-14656329D01*
X5572328Y-14642043D01*
X5558043Y-14613471D01*
X5558043Y-14527757D01*
X5572328Y-14499186D01*
X5586614Y-14484900D01*
X5615185Y-14470614D01*
X5658043Y-14470614D01*
X5686614Y-14484900D01*
X5700900Y-14499186D01*
X5715185Y-14527757D01*
X5715185Y-14613471D01*
X5700900Y-14642043D01*
X5686614Y-14656329D01*
X5658043Y-14670614D01*
X5615185Y-14670614D01*
X5886614Y-14670614D02*
X5858043Y-14656329D01*
X5843757Y-14627757D01*
X5843757Y-14370614D01*
X6115186Y-14656329D02*
X6086614Y-14670614D01*
X6029471Y-14670614D01*
X6000900Y-14656329D01*
X5986614Y-14627757D01*
X5986614Y-14513471D01*
X6000900Y-14484900D01*
X6029471Y-14470614D01*
X6086614Y-14470614D01*
X6115186Y-14484900D01*
X6129471Y-14513471D01*
X6129471Y-14542043D01*
X5986614Y-14570614D01*
X6243757Y-14656329D02*
X6272328Y-14670614D01*
X6329471Y-14670614D01*
X6358043Y-14656329D01*
X6372328Y-14627757D01*
X6372328Y-14613471D01*
X6358043Y-14584900D01*
X6329471Y-14570614D01*
X6286614Y-14570614D01*
X6258043Y-14556329D01*
X6243757Y-14527757D01*
X6243757Y-14513471D01*
X6258043Y-14484900D01*
X6286614Y-14470614D01*
X6329471Y-14470614D01*
X6358043Y-14484900D01*
X6472328Y-14784900D02*
X6486614Y-14770614D01*
X6515186Y-14727757D01*
X6529471Y-14699186D01*
X6543757Y-14656329D01*
X6558043Y-14584900D01*
X6558043Y-14527757D01*
X6543757Y-14456329D01*
X6529471Y-14413471D01*
X6515186Y-14384900D01*
X6486614Y-14342043D01*
X6472328Y-14327757D01*
M02*
