G04 #@! TF.FileFunction,Soldermask,Bot*
%FSLAX46Y46*%
G04 Gerber Fmt 4.6, Leading zero omitted, Abs format (unit mm)*
G04 Created by KiCad (PCBNEW (2015-07-01 BZR 5850, Git 51c0ae3)-product) date 08.09.2015 00:21:10*
%MOMM*%
G01*
G04 APERTURE LIST*
%ADD10C,0.100000*%
%ADD11R,1.800000X2.200000*%
%ADD12R,2.200000X1.800000*%
%ADD13R,3.349600X2.000860*%
%ADD14R,2.000860X3.349600*%
%ADD15R,1.899260X3.499460*%
%ADD16R,3.499460X1.899260*%
%ADD17R,1.797660X2.000860*%
%ADD18O,1.800000X2.500000*%
%ADD19R,1.701140X2.999080*%
%ADD20R,2.232000X1.927200*%
%ADD21O,2.232000X1.927200*%
%ADD22R,1.927200X2.232000*%
%ADD23O,1.927200X2.232000*%
%ADD24R,1.927200X1.927200*%
%ADD25O,1.927200X1.927200*%
%ADD26C,2.232000*%
%ADD27R,2.232000X2.232000*%
%ADD28O,2.232000X2.232000*%
%ADD29R,1.000100X2.000860*%
%ADD30R,1.900000X2.200000*%
%ADD31R,2.200000X1.900000*%
%ADD32C,2.300000*%
%ADD33C,1.950000*%
%ADD34C,1.724000*%
%ADD35R,2.232000X3.857600*%
%ADD36R,2.232000X1.216000*%
%ADD37O,2.500000X1.800000*%
%ADD38C,1.701140*%
%ADD39R,2.435200X2.435200*%
%ADD40O,1.706220X3.214980*%
%ADD41C,1.851000*%
%ADD42C,1.978000*%
G04 APERTURE END LIST*
D10*
D11*
X71374000Y-19399000D03*
X71374000Y-15399000D03*
D12*
X79089000Y-17399000D03*
X75089000Y-17399000D03*
X79089000Y-21209000D03*
X75089000Y-21209000D03*
D11*
X99949000Y-33814000D03*
X99949000Y-37814000D03*
D13*
X86393020Y-32004000D03*
X90644980Y-32004000D03*
D11*
X94869000Y-35909000D03*
X94869000Y-31909000D03*
X82804000Y-31909000D03*
X82804000Y-35909000D03*
D13*
X90644980Y-39624000D03*
X86393020Y-39624000D03*
D12*
X6699000Y-28194000D03*
X2699000Y-28194000D03*
D11*
X13589000Y-48609000D03*
X13589000Y-44609000D03*
D12*
X6699000Y-15494000D03*
X2699000Y-15494000D03*
X6699000Y-10414000D03*
X2699000Y-10414000D03*
X6699000Y-23114000D03*
X2699000Y-23114000D03*
D11*
X13589000Y-36989000D03*
X13589000Y-40989000D03*
D14*
X16764000Y-41114980D03*
X16764000Y-36863020D03*
D12*
X63214000Y-65659000D03*
X59214000Y-65659000D03*
D13*
X59088020Y-62484000D03*
X63339980Y-62484000D03*
D14*
X139319000Y-60164980D03*
X139319000Y-55913020D03*
D12*
X129889000Y-56769000D03*
X125889000Y-56769000D03*
D11*
X139319000Y-32099000D03*
X139319000Y-28099000D03*
D12*
X111919000Y-11049000D03*
X115919000Y-11049000D03*
X126079000Y-4699000D03*
X122079000Y-4699000D03*
X49689000Y-7239000D03*
X53689000Y-7239000D03*
X66389000Y-87884000D03*
X62389000Y-87884000D03*
D11*
X31369000Y-63214000D03*
X31369000Y-59214000D03*
X50419000Y-84804000D03*
X50419000Y-80804000D03*
D15*
X80264000Y-11894820D03*
X80264000Y-6393180D03*
X11684000Y-82593180D03*
X11684000Y-88094820D03*
D16*
X9354820Y-37084000D03*
X3853180Y-37084000D03*
D17*
X12468860Y-32004000D03*
X9629140Y-32004000D03*
D16*
X53383180Y-87884000D03*
X58884820Y-87884000D03*
D18*
X112649000Y-28194000D03*
X110109000Y-28194000D03*
X107569000Y-28194000D03*
X105029000Y-28194000D03*
X102489000Y-28194000D03*
X99949000Y-28194000D03*
X97409000Y-28194000D03*
X94869000Y-28194000D03*
X92329000Y-28194000D03*
X89789000Y-28194000D03*
X87249000Y-28194000D03*
X84709000Y-28194000D03*
X82169000Y-28194000D03*
X79629000Y-28194000D03*
X77089000Y-28194000D03*
X74549000Y-28194000D03*
X72009000Y-28194000D03*
X69469000Y-28194000D03*
X66929000Y-28194000D03*
X64389000Y-28194000D03*
X64389000Y-43434000D03*
X66929000Y-43434000D03*
X69469000Y-43434000D03*
X72009000Y-43434000D03*
X74549000Y-43434000D03*
X77089000Y-43434000D03*
X79629000Y-43434000D03*
X82169000Y-43434000D03*
X84709000Y-43434000D03*
X87249000Y-43434000D03*
X89789000Y-43434000D03*
X92329000Y-43434000D03*
X94869000Y-43434000D03*
X97409000Y-43434000D03*
X99949000Y-43434000D03*
X102489000Y-43434000D03*
X105029000Y-43434000D03*
X107569000Y-43434000D03*
X110109000Y-43434000D03*
X112649000Y-43434000D03*
D19*
X90769440Y-35814000D03*
X86268560Y-35814000D03*
D20*
X133604000Y-32004000D03*
D21*
X133604000Y-34544000D03*
X133604000Y-37084000D03*
X133604000Y-39624000D03*
D18*
X112649000Y-22479000D03*
X115189000Y-22479000D03*
X117729000Y-22479000D03*
X120269000Y-22479000D03*
X120269000Y-14859000D03*
X117729000Y-14859000D03*
X115189000Y-14859000D03*
X112649000Y-14859000D03*
D22*
X28829000Y-66929000D03*
D23*
X31369000Y-66929000D03*
X33909000Y-66929000D03*
X36449000Y-66929000D03*
X38989000Y-66929000D03*
X41529000Y-66929000D03*
D24*
X129794000Y-12319000D03*
D25*
X132334000Y-12319000D03*
X129794000Y-14859000D03*
X132334000Y-14859000D03*
X129794000Y-17399000D03*
X132334000Y-17399000D03*
X129794000Y-19939000D03*
X132334000Y-19939000D03*
D20*
X57404000Y-4699000D03*
D21*
X57404000Y-7239000D03*
X57404000Y-9779000D03*
X57404000Y-12319000D03*
X57404000Y-14859000D03*
D26*
X42799000Y-82677000D03*
X41529000Y-80137000D03*
X40259000Y-82677000D03*
X38989000Y-80137000D03*
X37719000Y-82677000D03*
X46609000Y-80137000D03*
X45339000Y-82677000D03*
X44069000Y-80137000D03*
D27*
X10414000Y-59309000D03*
D28*
X10414000Y-56769000D03*
D29*
X11364000Y-65890140D03*
X9464000Y-65890140D03*
X10414000Y-62887860D03*
X41214000Y-29867860D03*
X43114000Y-29867860D03*
X42164000Y-32870140D03*
X27244000Y-29867860D03*
X29144000Y-29867860D03*
X28194000Y-32870140D03*
D30*
X65024000Y-9684000D03*
X65024000Y-13684000D03*
X82804000Y-11144000D03*
X82804000Y-7144000D03*
X18669000Y-68929000D03*
X18669000Y-64929000D03*
X14224000Y-68929000D03*
X14224000Y-64929000D03*
X13589000Y-56229000D03*
X13589000Y-52229000D03*
X6604000Y-68929000D03*
X6604000Y-64929000D03*
D31*
X129889000Y-61849000D03*
X125889000Y-61849000D03*
X129889000Y-54229000D03*
X125889000Y-54229000D03*
D30*
X37084000Y-29369000D03*
X37084000Y-33369000D03*
X33274000Y-29369000D03*
X33274000Y-33369000D03*
D31*
X40164000Y-25019000D03*
X44164000Y-25019000D03*
X26194000Y-25019000D03*
X30194000Y-25019000D03*
D30*
X66294000Y-94964000D03*
X66294000Y-90964000D03*
X52959000Y-90964000D03*
X52959000Y-94964000D03*
D32*
X76499000Y-9094000D03*
D33*
X75239000Y-6604000D03*
X70739000Y-6604000D03*
D32*
X69489000Y-9094000D03*
X56089000Y-93014000D03*
D33*
X57349000Y-95504000D03*
X61849000Y-95504000D03*
D32*
X63099000Y-93014000D03*
D34*
X16764000Y-12954000D03*
X14224000Y-12954000D03*
X19304000Y-12954000D03*
D20*
X9779000Y-40259000D03*
D21*
X9779000Y-42799000D03*
X9779000Y-45339000D03*
D20*
X9779000Y-10414000D03*
D21*
X9779000Y-12954000D03*
X9779000Y-15494000D03*
D35*
X16256000Y-25654000D03*
D36*
X9652000Y-25654000D03*
X9652000Y-23368000D03*
X9652000Y-27940000D03*
D18*
X99949000Y-87249000D03*
X97409000Y-87249000D03*
X94869000Y-87249000D03*
X92329000Y-87249000D03*
X89789000Y-87249000D03*
X87249000Y-87249000D03*
X84709000Y-87249000D03*
X84709000Y-94869000D03*
X87249000Y-94869000D03*
X89789000Y-94869000D03*
X92329000Y-94869000D03*
X94869000Y-94869000D03*
X97409000Y-94869000D03*
X99949000Y-94869000D03*
X74549000Y-58674000D03*
X77089000Y-58674000D03*
X79629000Y-58674000D03*
X82169000Y-58674000D03*
X84709000Y-58674000D03*
X87249000Y-58674000D03*
X89789000Y-58674000D03*
X89789000Y-51054000D03*
X87249000Y-51054000D03*
X84709000Y-51054000D03*
X82169000Y-51054000D03*
X79629000Y-51054000D03*
X77089000Y-51054000D03*
X74549000Y-51054000D03*
X66929000Y-80899000D03*
X69469000Y-80899000D03*
X72009000Y-80899000D03*
X74549000Y-80899000D03*
X77089000Y-80899000D03*
X79629000Y-80899000D03*
X82169000Y-80899000D03*
X84709000Y-80899000D03*
X87249000Y-80899000D03*
X89789000Y-80899000D03*
X92329000Y-80899000D03*
X94869000Y-80899000D03*
X97409000Y-80899000D03*
X99949000Y-80899000D03*
X102489000Y-80899000D03*
X105029000Y-80899000D03*
X105029000Y-65659000D03*
X102489000Y-65659000D03*
X99949000Y-65659000D03*
X97409000Y-65659000D03*
X94869000Y-65659000D03*
X92329000Y-65659000D03*
X89789000Y-65659000D03*
X87249000Y-65659000D03*
X84709000Y-65659000D03*
X82169000Y-65659000D03*
X79629000Y-65659000D03*
X77089000Y-65659000D03*
X74549000Y-65659000D03*
X72009000Y-65659000D03*
X69469000Y-65659000D03*
X66929000Y-65659000D03*
D37*
X14224000Y-75819000D03*
X14224000Y-73279000D03*
X6604000Y-73279000D03*
X6604000Y-75819000D03*
D38*
X82169000Y-22379940D03*
X82169000Y-17498060D03*
D13*
X121953020Y-7874000D03*
X126204980Y-7874000D03*
D14*
X54229000Y-79408020D03*
X54229000Y-83659980D03*
D31*
X6699000Y-32004000D03*
X2699000Y-32004000D03*
D17*
X12468860Y-19304000D03*
X9629140Y-19304000D03*
D31*
X6699000Y-19304000D03*
X2699000Y-19304000D03*
D20*
X133604000Y-82169000D03*
D21*
X133604000Y-79629000D03*
X133604000Y-77089000D03*
X133604000Y-74549000D03*
X133604000Y-72009000D03*
X133604000Y-69469000D03*
X133604000Y-66929000D03*
X133604000Y-64389000D03*
X133604000Y-61849000D03*
X133604000Y-59309000D03*
X133604000Y-56769000D03*
X133604000Y-54229000D03*
X133604000Y-51689000D03*
X133604000Y-49149000D03*
X133604000Y-46609000D03*
D24*
X92329000Y-9144000D03*
D25*
X92329000Y-6604000D03*
X94869000Y-9144000D03*
X94869000Y-6604000D03*
X97409000Y-9144000D03*
X97409000Y-6604000D03*
D20*
X30734000Y-85344000D03*
D21*
X30734000Y-82804000D03*
X30734000Y-80264000D03*
D39*
X117729000Y-47879000D03*
X56134000Y-42799000D03*
D40*
X11684000Y-96139000D03*
X14224000Y-96139000D03*
D41*
X97409000Y-11684000D03*
X88519000Y-11684000D03*
X72644000Y-11684000D03*
D42*
X25654000Y-97409000D03*
X129794000Y-5334000D03*
X15494000Y-19304000D03*
D41*
X60579000Y-43434000D03*
X79629000Y-31369000D03*
X110109000Y-31369000D03*
X108839000Y-22479000D03*
X38989000Y-43434000D03*
X122809000Y-26289000D03*
X106299000Y-19939000D03*
X31369000Y-55499000D03*
X102489000Y-19939000D03*
X101219000Y-6604000D03*
X99949000Y-17399000D03*
X136779000Y-17399000D03*
X120269000Y-11684000D03*
X97409000Y-15494000D03*
X92329000Y-15494000D03*
X64389000Y-25019000D03*
X118999000Y-28829000D03*
X66929000Y-33909000D03*
X122809000Y-31369000D03*
X64389000Y-35814000D03*
X119634000Y-33909000D03*
X36449000Y-46609000D03*
X58674000Y-46609000D03*
X33909000Y-49149000D03*
X56134000Y-49149000D03*
X106299000Y-91059000D03*
X66929000Y-53594000D03*
X69469000Y-59309000D03*
X84709000Y-45974000D03*
X107569000Y-75184000D03*
X128524000Y-77089000D03*
X84709000Y-84074000D03*
X72009000Y-87884000D03*
X89789000Y-61849000D03*
X84709000Y-61849000D03*
X92329000Y-56134000D03*
X69469000Y-68834000D03*
X72009000Y-73914000D03*
X87249000Y-48514000D03*
X84709000Y-53594000D03*
X77089000Y-71374000D03*
X74549000Y-76454000D03*
X82169000Y-53594000D03*
X30099000Y-14859000D03*
X40259000Y-14859000D03*
X102489000Y-54229000D03*
X128524000Y-72009000D03*
X99949000Y-51689000D03*
X130429000Y-69469000D03*
X72009000Y-40259000D03*
X134874000Y-14859000D03*
X125349000Y-14859000D03*
X74549000Y-38354000D03*
X132334000Y-23114000D03*
X77089000Y-38354000D03*
X94869000Y-46609000D03*
X130429000Y-64389000D03*
X97409000Y-49149000D03*
X128524000Y-66929000D03*
X110109000Y-79629000D03*
X130429000Y-79629000D03*
D42*
X104394000Y-94869000D03*
X68834000Y-51054000D03*
X59944000Y-59309000D03*
X26924000Y-63119000D03*
X28829000Y-4699000D03*
X112014000Y-7874000D03*
X133604000Y-28829000D03*
X85979000Y-6604000D03*
X35179000Y-25654000D03*
X19304000Y-32004000D03*
D41*
X130429000Y-74549000D03*
X105029000Y-56769000D03*
X112649000Y-82169000D03*
X128524000Y-82169000D03*
M02*
